<?xml version="1.0" encoding="UTF-8"?>
<svg xmlns="http://www.w3.org/2000/svg" xmlns:xlink="http://www.w3.org/1999/xlink" fill="none" height="70" viewBox="0 0 184 70" width="184">
  <clipPath id="a">
    <path d="m0 0h184v70h-184z"></path>
  </clipPath>
  <g clip-path="url(#a)" fill="#221b0b">
    <path d="m101.228 35.994c.944.8371 1.73 1.7788 2.359 2.6682.682.9417 1.049 1.8835 1.049 2.9822.038.2633.021.4726.009.6277v.0014c-.005.0597-.009.112-.009.1557-.157 1.151-.682 2.1973-1.573 3.0868-.891.8894-2.045 1.5695-3.4601 2.145-1.3632.5755-2.8836.9941-4.5614 1.308-1.6777.3139-3.5127.5232-5.4526.6278-.8913.0523-1.7826.0523-2.6739.0523-2.569 0-5.138-.2092-7.707-.5755-3.4603-.5232-6.3964-1.3079-8.7557-2.4066-2.4641-1.2034-3.7749-2.5637-3.8273-4.1332v-.157c0-.2092.0524-.5755.4719-.8371.2097-.1569.4718-.2616.734-.3139h.0524c.3146 0 .5767.0523.7864.157.2622.1046.4195.3662.4195.6801.0524.3139.1048.5755.2097.7848.5243.9417 1.835 1.8312 3.9846 2.5636 2.202.7848 4.8759 1.3603 7.8643 1.7265 3.0409.3663 6.0818.4709 9.0178.3139 1.7302-.0523 3.3031-.2615 4.7711-.5231 1.4156-.2616 2.7787-.6279 3.9322-1.0987 1.101-.4709 2.0451-.9941 2.7261-1.6742.682-.6802 1.049-1.3603 1.154-2.1451v-.4185c0-.5756-.315-1.2557-.839-1.9882-.577-.7847-1.311-1.5695-2.2023-2.3543-.7856-.6918-1.6935-1.4242-2.6517-2.1972l-.3892-.3141c-1.1534-.8894-2.2544-1.8311-3.4078-2.8252-1.1535-.9941-2.2021-2.0404-3.1458-3.0868-.9437-1.0987-1.7826-2.302-2.4117-3.61-.6292-1.308-.9962-2.7206-1.0486-4.0808v-1.1511c.1049-1.7788.8389-3.6099 2.1496-5.5457s2.9884-3.6623 4.9283-5.2319c1.9399-1.56956 4.0371-2.98216 6.2391-4.29013 2.2541-1.30797 4.4041-2.35434 6.4491-3.0868 2.097-.73246 3.879-1.203333 5.295-1.255651h.629c3.356.104637 5.191 1.831151 5.348 4.917951.157 2.82521-1.049 6.74913-3.67 11.98093-.105.157-.367.4186-.944.4709-.262 0-.472 0-.681-.0523-.158 0-.263-.0523-.367-.1046-.42-.2093-.63-.5232-.63-.9418 0-.3139.105-.5755.315-.8894.105-.1569.21-.3139.367-.4185.02-.02.032-.04.043-.0571.017-.0276.029-.0476.062-.0476l.052-.0523c.026 0 .04-.0131.053-.0262.013-.013.026-.0261.052-.0261l.629-1.3603c.246-.5516.456-1.0314.629-1.4289l.002-.0028c.122-.2799.226-.519.313-.7134.161-.362.353-.8787.577-1.4787.067-.1801.137-.36853.209-.56169.053-.17862.106-.35301.157-.52319.205-.67721.389-1.2876.473-1.83116.157-.73246.209-1.36028.157-1.93579-.105-1.93579-1.154-2.87752-3.356-2.98216h-.419c-.839.05232-1.94.26159-3.198.68014-1.258.36623-2.622.88942-4.037 1.56956-1.468.68015-2.936 1.46493-4.404 2.35434-1.4683.88942-2.8839 1.83116-4.247 2.92985-1.3107 1.0987-2.569 2.1974-3.6176 3.2961s-1.9399 2.2497-2.5691 3.453c-.6291 1.151-.9961 2.302-1.0485 3.3484v.8894c.0524 1.151.367 2.3544.9437 3.5054s1.3632 2.2497 2.2544 3.1914c.869.9692 1.8876 1.8887 2.9584 2.8554l.0825.0745c1.101.9417 2.2021 1.8834 3.3031 2.7728l.3479.2809c.9738.7857 1.9022 1.5344 2.7452 2.2828z"></path>
    <path d="m26.2009 52.0035c0-.1047-.0524-.157-.0524-.157l-.0518-.0037c-.7119-.0509-1.325-.0948-1.8881.1607-1.1534.0523-2.7787.2616-4.7186.6278-4.6138.8371-9.0702 2.0927-13.21212 3.7669-1.67773.7325-2.8836 1.0987-3.72247 1.151h-.15728c-1.468016 0-1.730161-1.0463-1.730161-1.5172 0-.2093 0-.4186.052428-.6278 0-.157.052429-.3663.104859-.5755.104858-.4709.314574-.9418.576714-1.5173.26215-.5755.47187-.994.68158-1.3603.09132-.2278.22239-.4556.39323-.7525l.07863-.1369.36701-.6278c.367-.6801.57672-1.0464.68158-1.2033l3.35546-5.9644c.734-1.2556 1.9923-3.5053 3.72244-6.6444 1.7302-3.1915 3.1458-5.8074 4.1943-7.7955.2971-.578.6067-1.1769.9266-1.7956l.0005-.001c.8092-1.5654 1.684-3.2576 2.5857-5.0572 1.2583-2.5636 2.3069-4.7086 3.0409-6.4875.734-1.7265 1.2058-3.1391 1.468-4.1331-.2622-.2093-.3146-.4186-.3146-.5756v-.1046c0-.2093.1049-.4185.2097-.6278.1573-.26159.3146-.47088.4719-.57552l.0524-.05232c.2097-.10463.4719-.20927.734-.20927.3146 0 .6292.05232.8913.20927.4719.20928.5767.52319.5767.73244v.0523l-.1048.7848c-.2097 1.151-.734 2.7206-1.6777 4.8657-.8913 2.0927-1.9399 4.2901-3.0934 6.5398-1.1534 2.2497-2.569 4.9179-4.2991 8.0571-1.6778 3.0868-3.1982 5.8073-4.4565 8.0047-1.2583 2.2497-2.72633 4.8133-4.45648 7.7955l-1.99231 3.5054c-.62915 1.0986-1.10101 1.9357-1.41558 2.5113-1.31073 2.3543-1.52044 3.0868-1.52044 3.2437h.05242c.10486 0 .68158-.1046 2.98846-1.0464 2.5166-1.0463 5.50503-2.0927 8.91293-3.0868 3.4079-1.0463 6.4488-1.6218 8.9654-1.7265 1.7301-.1046 3.0933.0523 4.037.4709.1573.0523.367.2616.5767.6278.2098.2616.3146.5755.3146.8371s-.0524.4709-.2097.6278c-.3146.4186-.6292.6802-.9962.6802-.1048 0-.2621 0-.367-.0523-.3964-.0989-.5118-.5717-.5675-.7999z"></path>
    <path clip-rule="evenodd" d="m68.7215 35.5754c0-.157-.0524-.4186-.3145-.6278-.2098-.2616-.4719-.2616-.6292-.2616l-.367.1046-.1049.0523c-.0524.0523-.2097.157-.4718.3139-.1925.1098-.4283.2628-.7073.4438-.2529.164-.5417.3514-.8656.5503-1.3107.8371-2.2544 1.4126-2.7787 1.7265-.1712.0976-.3651.218-.5872.3558l-.0009.0005c-.254.1576-.5446.3379-.8799.5331l-.9438.5232c-1.0485.5755-1.9398.9941-2.6739 1.2557-.6815.2616-1.3107.4185-1.7825.4185-.9438.0523-1.7302-.1046-2.3069-.4709-.5243-.3139-.7864-.7847-.8389-1.4126 0-.2092 0-.4708.0525-.7324.0524-.2093.1048-.2093.1048-.2093h.3146c.9961-.0523 2.0447-.3139 3.1457-.7325 1.101-.4185 1.9923-.9417 2.6739-1.6218.7864-.7325 1.1534-1.4126 1.1534-2.1451 0-.5232-.2621-.9417-.6815-1.2556-.367-.2616-.8913-.4186-1.468-.3663-1.0486.0523-2.2545.4709-3.5128 1.308-.9961.6278-1.835 1.3603-2.4642 2.1974-4.1418 1.151-8.9129 2.6682-14.1034 4.4471l6.8682-11.981c.2098-.2093.4195-.3662.734-.4186.0558-.0185.1082-.0354.1573-.0512.2283-.0736.3856-.1243.4719-.2104.0271-.027.0542-.0505.0804-.0733.0751-.0653.1429-.1242.1817-.2406.1049-.2092.1573-.4708.1573-.7847-.0524-1.4127-1.0486-1.5173-1.4156-1.465-.4718 0-.8913.2093-1.2583.6278-1.0485 1.308-3.1457 4.9703-6.5012 11.2486-1.3107.9417-3.0408 2.0927-5.1904 3.4007-2.8836 1.7788-4.0895 2.145-4.6138 2.1974-.3146 0-.367-.0524-.4194-.1047 0 0-.0525-.0523-.0525-.2616-.0524-.6278.2622-1.8834 1.8875-4.4471 0 0 .0524-.0523.1048-.1569.1049-.1046.2098-.2093.2622-.3139.1573-.2093.1573-.3663.1573-.5232 0-.3139-.1573-.5755-.4195-.7848-.2097-.2093-.4718-.2616-.734-.2616-.1048 0-.2097 0-.2621.0523h-.0524l-.1049.0524c-.0175.0174-.0349.029-.0524.0406-.035.0233-.0699.0465-.1049.1163l-.1048.1046c-1.7826 2.6683-2.5691 4.6564-2.5166 6.069.0524 1.4126.8913 2.1974 2.3068 2.302.6816-.0523 1.5205-.3139 2.6215-.8371.0524.2093.1049.4186.2621.5755.1049.1047.2098.2093.367.2616.0218 0 .0525.009.0885.0195.0508.0149.1123.0329.1737.0329h.1573c.5243-.1047 1.3631-.314 2.569-.7325-5.0856 9.3127-8.4935 16.0095-10.0664 19.8811-.8913 2.0927-1.3107 3.5577-1.2583 4.4994 0 .2616.0525.4709.1573.6278.0524.157.1573.3139.2622.4186.2621.2616.5767.4185.9437.4185h.0524c.8389-.0523 1.9399-.8371 3.4079-2.4066.5767-.6279 1.2583-1.5173 2.1496-2.8252.8389-1.2557 1.7301-2.7729 2.6739-4.4471.8913-1.6742 1.7826-3.4531 2.569-5.1796s1.4156-3.5053 1.9399-5.2319c.5243-1.7788.734-3.2437.6815-4.4994-.0524-.8894-.2621-1.6218-.6291-2.2497h.0524s.0525 0 .1049-.0523l.2097-.1046c.1756-.0657.5257-.1864 1.0466-.366l.0013-.0004c.7233-.2494 1.7758-.6122 3.1464-1.0985 2.3593-.8371 4.4565-1.5696 6.1342-2.1451.3846-.1221.775-.2442 1.1653-.3663.7806-.2441 1.5611-.4883 2.295-.7324.0263.0262.0394.0523.0525.0785.0131.0261.0262.0523.0524.0785-.1049.5231-.1573.994-.1573 1.4126.0524 1.2033.5767 2.145 1.6253 2.8252.9437.6278 2.202.8894 3.7225.8371h.2097c.7864-.0524 1.7826-.3663 3.0409-.9418 1.2059-.5755 2.3069-1.151 3.1982-1.7265.3089-.1995.6556-.4178 1.0358-.6572l.0021-.0013c.716-.4509 1.551-.9767 2.4748-1.5912.5621-.3739 1.0332-.6901 1.4135-.9453l.0021-.0014c.5761-.3867.9431-.633 1.101-.7275.2621.0523.4719-.2616.4194-.6278zm-40.3179 21.6599c.6247-1.2006 1.1881-2.2993 1.6993-3.2961.6471-1.2619 1.2106-2.3607 1.7086-3.296.8388-1.5696 1.8874-3.5054 3.1457-5.7551v.1047c.0524 1.4126-.4718 3.6099-1.6253 6.5398-1.1534 2.9821-2.5166 5.8597-4.037 8.5803-1.5205 2.6682-2.7788 4.604-3.7225 5.6504-.5767.6278-1.0486 1.0463-1.3631 1.3079.1572-.7324.5243-1.7265.9961-2.8775.6816-1.8835 1.7826-4.2378 3.1982-6.9584zm6.8158-16.9512c-.0263.0784-.0656.1438-.1049.2092s-.0786.1308-.1049.2093c0 .0523-.1048.157-.367.3139-.2621.157-.4718.2616-.6291.3139h-.4719c.5768-.3139 1.1535-.6801 1.6778-1.0463zm19.0317-4.2902c.4719-.4708 1.0486-.8371 1.6253-1.2033.7864-.4185 1.4156-.6801 1.9923-.6801h.0524c-.0524.1046-.1572.2092-.2621.3138-.2621.2616-.7864.6279-1.5204.9418-.5243.3139-1.2059.5232-1.8875.6278z" fill-rule="evenodd"></path>
    <path d="m29.6626 33.3781-.2622.0523c-.1572 0-.5242-.0523-.7864-.4186-.1048-.2092-.2097-.4708-.2097-.7324 0-.8894.4719-1.151.734-1.2557.367-.1569.6292-.2092.9437-.2092.4195 0 .734.1046.9437.2615.2098.2093.3671.4709.4719.8371v.1047c0 .3139-.1048.6278-.367.8894-.0786.0523-.1442.1046-.2097.157-.0655.0523-.1311.1046-.2097.1569l-.3146.157-.1573.0523h-.1573c-.0524 0-.1048-.0131-.1573-.0262-.0524-.0131-.1048-.0261-.1572-.0261z"></path>
    <path clip-rule="evenodd" d="m183.227 29.1926c-.21-.2615-.472-.2615-.629-.2615l-.367.1046-.105.0523c-.026 0-.065.0262-.124.0654s-.138.0916-.243.1439c-.314.2093-.891.5755-1.73 1.0987-1.311.8371-2.254 1.4126-2.779 1.7265-.217.1298-.487.2865-.804.47l-.002.0009c-.449.26-.991.5739-1.605.9417-1.049.5755-1.94.994-2.674 1.2556-.682.2616-1.311.4186-1.783.4186-.944.0523-1.73-.1046-2.307-.4709-.524-.3139-.786-.7848-.839-1.4126 0-.2093 0-.4709.053-.7324.052-.2093.105-.2093.105-.2093h.314c.996-.0523 2.045-.3139 3.146-.7325 1.101-.4185 1.992-.9417 2.674-1.6219.786-.7324 1.153-1.4126 1.153-2.145 0-.5232-.262-.9418-.681-1.2557-.367-.2616-.892-.4185-1.468-.3662-1.049.0523-2.255.4709-3.513 1.308-1.206.7324-2.15 1.6218-2.779 2.6159-.839.1046-1.101.6278-1.206.9417v.1047c0 .0523 0 .1569.053.2616-.315.2616-.629.5755-.944.8894-.944.8371-2.097 1.6742-3.355 2.459-1.206.7847-2.255 1.151-3.041 1.2033h-.105c-.629 0-1.101-.2616-1.363-.7848-.315-.6278-.525-1.5696-.577-2.8252-.052-.9417-.052-1.7265-.052-2.2497v-.3139c0-.5232-.158-.8894-.367-1.2033-.158-.2093-.525-.4709-1.101-.4709-.787.0523-1.888.6278-3.408 1.8311-.997.8371-2.412 2.0928-4.09 3.767 1.363-2.7206 2.569-4.7087 3.513-5.9643.052-.0524.105-.1047.105-.157.032-.0323.045-.0647.062-.1093.01-.0277.023-.06.043-.1.157-.2616.262-.5232.262-.7324 0-.2093-.105-.3663-.262-.5232-.21-.2093-.472-.2616-.734-.2616-.315 0-.577.1569-.787.4185-.472.6279-1.835 1.7789-4.089 3.5054-2.255 1.7265-4.666 3.3484-7.131 4.8656-2.988 1.8312-4.142 2.2497-4.666 2.302h-.052c0-.0261-.013-.0523-.026-.0784-.014-.0262-.027-.0524-.027-.0785 0-.3662.158-1.3603 1.678-3.9762l.052-.0524h-.104c0-.0523.052-.1046.052-.1046.052-.0523.052-.1046.052-.2093l.21-.3662.472-.7848s.052-.0523.105-.0523c.105-.0523.157-.1046.21-.1569.028-.0281.056-.0524.082-.0749.071-.0616.127-.1101.127-.1867.023-.0459.036-.0918.048-.1333.015-.0531.028-.0989.057-.1283v-.3139c0-.2616-.157-.5232-.367-.6802-.105-.1046-.21-.1569-.314-.2093-.053-.0523-.158-.0523-.263-.0523h-.209c-.315 0-.525.157-.734.4709-.053.0784-.144.2352-.282.4704-.137.2355-.321.5498-.557.9422l-.21.3662-.367.3663c-.105.1569-.21.2615-.314.3139l-1.101.9417c-.42.3662-.787.6801-1.101.9417-.385.314-.909.721-1.574 1.2365-.332.2577-.698.5425-1.1.8563-1.154.8894-2.255 1.5695-3.198 2.0404-.944.4709-1.731.7325-2.412.7325-.682-.0523-.944-.2093-.996-.2616-.053-.0523-.21-.2616-.263-1.0987-.052-.6802.158-2.0404.63-4.1332.314-1.308.419-2.1974.367-2.7206 0-.1046 0-.2093-.053-.3139 0-.0523 0-.1046-.052-.1569 0-.1047-.053-.2093-.105-.3139 0-.0524-.052-.157-.105-.2093-.052-.1046-.105-.157-.157-.2093-.158-.2093-.525-.4709-1.154-.4709-.786.0524-2.202.6279-6.081 4.6564.626-1.0853 1.438-2.46 2.437-4.1502l.001-.0009c.59-.9983 1.245-2.1067 1.966-3.3305 3.407-5.8597 6.186-10.3067 8.179-13.2889 0-.0262.013-.0392.026-.0523s.026-.0262.026-.0523l.052-.0524c0-.0261.014-.0392.027-.0523s.026-.0261.026-.0523l.052-.0523c.158-.157.262-.3139.367-.4709.053-.1569.105-.3662.105-.6801v-.1047c-.105-.6278-.524-.994-1.153-.9417-.472 0-.839.2093-1.049.5232-1.258 2.1451-4.142 7.0107-8.598 14.4399-4.404 7.3246-7.445 12.4519-8.966 15.1725-.157.2092-.157.5231-.157.6278 0 .1569.052.3138.105.4708.052.1569.105.2616.21.4186.262.4185.576.5232.786.5232h.053c.076 0 .153-.0281.25-.0636.036-.013.074-.027.117-.0411.026-.0261.065-.0523.104-.0784.04-.0262.079-.0524.105-.0785l.053-.0523c7.182-8.2141 9.751-10.5161 10.748-11.1439-.037.2915-.124.7354-.263 1.4377-.06.3059-.13.6608-.209 1.0736-.367 1.8835-.577 3.1914-.525 4.0808.053.9941.315 1.7789.892 2.3544.576.5755 1.363.8371 2.359.7848.472 0 .996-.1047 1.521-.3139.576-.2093 1.101-.4186 1.572-.6279l.102-.056c.452-.2502.991-.549 1.576-.938.419-.2616.734-.4708 1.049-.68l.524-.3664c.151-.1133.316-.2334.498-.3652.32-.2335.692-.5038 1.127-.8381l1.101-.8894v.0523c-.105.4708-.157.8894-.157 1.2556.052.5755.262 1.0464.629 1.4649.105.1047.21.157.367.2093.022 0 .044.009.069.0195.036.0149.079.0328.141.0328.157.0524.367.0524.577.0524 1.992-.1047 6.239-2.616 13.002-7.5863-.131.2355-.249.4709-.367.7063-.118.2355-.236.4709-.367.7063-.419.8372-.944 1.8835-1.468 3.0345l-.891 1.9358c-.062.1226-.105.2273-.141.3139-.026.0613-.047.1137-.069.157l-.105.4185v.0524c0 .2616.105.4708.315.7324.105.1047.262.2093.367.2616s.209.0523.314.0523c.21 0 .42-.1046.577-.2616l4.404-4.3947c.734-.7325 1.573-1.5173 2.412-2.3021.839-.7847 1.625-1.4126 2.254-1.8834.264-.2197.492-.3287.682-.4199.036-.0174.071-.0343.105-.051v2.2497c.157 3.5577 1.415 5.3888 3.722 5.4935h.262c.839-.0523 1.783-.3139 2.779-.7848s1.94-1.0987 2.884-1.8312c.422-.3239.824-.668 1.205-.9948.235-.201.462-.3954.682-.5747.105 1.0464.682 1.8834 1.573 2.5113.944.6278 2.202.8894 3.722.8371h.21c.787-.0523 1.783-.3663 3.041-.9418 1.206-.5755 2.307-1.151 3.198-1.7265.58-.3405 1.271-.7918 2.088-1.3251l.001-.0006c.438-.2859.912-.5954 1.424-.924.563-.3748 1.035-.6916 1.416-.9471.576-.3864.943-.6326 1.1-.7271.158-.0523.263-.1569.368-.3139l.157-.3139v-.2616c-.053-.2616-.105-.5232-.315-.7325zm-10.8-.4708c-.262.2616-.787.6278-1.521.9417-.576.2616-1.205.4709-1.887.5755.472-.4708 1.049-.8371 1.625-1.2033.787-.4186 1.416-.6802 1.993-.6802h.052c-.029.0588-.075.1176-.129.1856-.041.0531-.087.1119-.133.1807z" fill-rule="evenodd"></path>
    <path d="m136.407 26.786c-.158 0-.263-.0523-.367-.1046-.105-.0523-.263-.157-.315-.2616-.157-.2616-.262-.5232-.262-.7848 0-.2093.052-.4186.105-.5755.105-.3139.314-.5232.629-.6278.21-.0523.419-.1047.577-.157.104-.0523.209-.0523.314-.0523.891-.0523 1.258.4709 1.363.7848l.105.3139c0 .3662-.157.8894-1.048 1.2033-.053.0262-.105.0393-.158.0523-.052.0131-.105.0262-.157.0524l-.157.0523c-.181 0-.262.025-.312.0404-.023.0069-.039.0119-.055.0119l-.21.0523z"></path>
  </g>
</svg>
