<svg xmlns="http://www.w3.org/2000/svg" viewBox="0 0 60 60"><circle cx="22.2578" cy="23.2031" fill="#ffefd5" r="13.9043"></circle><g fill="#221b0b"><path d="m59.2461 48.8467-.8903-1.1276c.1602.0057.3177-.0394.4186-.1722.1348-.1797.1338-.4277-.0029-.6055l-16.3945-21.3281c-.042-.0542-.0938-.0991-.1533-.1323-2.043-1.1353-7.208-2.937-12.1489-1.6382-3.8887 1.0234-5.8369 2.4434-6.4893 3.5713-1.5557-.8281-5.064-1.9961-10.2554-1.9961-6.0298 0-8.7231 2.2808-9.3638 3.6279-.0767.1616-.0615.3516.04.4985l.3371.4893h-3.109c-.186 0-.3564.103-.4429.2681-.0864.1646-.0742.3633.0317.5161l15.0308 21.7329c.0938.1357.2476.2158.4111.2158.0122 0 .0244 0 .0366-.001l42.5879-3.1104c.1846-.0137.3467-.1279.4219-.2979.0742-.1688.0489-.3661-.0654-.5106zm-28.9165-24.0371c4.5571-1.1992 9.3403.4272 11.3188 1.4966l15.0801 19.6185-.2721.2145c-4.2094-1.0037-10.7891-1.0956-16.508 2.0223l-15.5856-20.0605c.2239-.6025 1.6072-2.144 5.9668-3.2914zm-16.9995 1.6084c5.3573 0 8.7711 1.2491 10.0209 2.0107l15.1419 19.4883c-5.1981-1.4674-13.8635-2.0873-19.4367 1.707l-14.0464-20.3857c.6694-.9634 3.0478-2.8203 8.3203-2.8203zm3.1836 25.3291-14.3257-20.7139h2.7085v-.1969l13.6245 19.7731c.0771.1123.1963.1875.3301.21.0273.0049.0542.0068.0815.0068.1069 0 .2114-.0342.2983-.0986 5.978-4.4482 16.2925-2.877 20.3521-1.4189.1396.0488.292.0361.4199-.0381 5.788-3.3555 12.6095-3.1415 16.6889-2.0454l1.1851 1.5015z"></path><path d="m4.168 19.311c.0693.0327.1426.0483.2144.0483.187 0 .3662-.105.4521-.2852.2197-.4619 1.4995-1.6611 4.7383-1.6611 3.3687 0 5.3516.8716 5.8315 1.2075.1377.0957.3169.1035.4741.041.1562-.0625.2734-.2129.3071-.3779.043-.209.7354-1.1284 3.3403-1.814 2.6318-.6914 5.3965.2725 6.4893.8804.2412.1348.5454.0469.6797-.1943s.0474-.5454-.1943-.6797c-1.2148-.6753-4.291-1.748-7.229-.9731-2.126.5591-3.2944 1.3398-3.7915 2.0117-1.0142-.4995-3.0078-1.1016-5.9072-1.1016-3.6147 0-5.2471 1.4028-5.6416 2.2314-.1187.2496-.0127.548.2368.6666z"></path><path d="m17.5669 7.4873c.0693.0327.1421.0483.2139.0483.187 0 .3667-.1055.4521-.2856.0737-.1553.6753-.7354 2.2705-.7354 1.7056 0 2.6875.4263 2.9219.5903.1421.0991.3208.1396.4795.0713.1597-.0688.2661-.1934.291-.3652.002-.0044.2383-.4438 1.5884-.7993 1.3555-.355 2.7891.1973 3.2271.4399.2407.1343.5459.0469.6797-.1943.1343-.2412.0474-.5454-.1943-.6797-.7148-.3975-2.354-.958-3.9673-.5327-1.1144.2935-1.6935.6739-1.9938.9951-.5991-.2559-1.623-.5254-3.0322-.5254-1.8848 0-2.8877.7036-3.1738 1.3066-.1187.2496-.0122.5475.2373.6661z"></path></g></svg>