<svg xmlns="http://www.w3.org/2000/svg" fill="none" height="209" viewBox="0 0 203 209" width="203"><ellipse cx="87.3208" cy="83.6202" fill="#fff3e1" rx="87.3208" ry="83.6202" transform="matrix(.648173 .761494 .761494 -.648173 -19.3535 108.401)"></ellipse><path d="m57.881 85.8419c.0196.063.0266.1292.0206.1949-.0061.0657-.0251.1295-.056.1879-.0308.0584-.073.1101-.124.1523s-.1098.0739-.1731.0934c-2.8788.892-4.9665 2.6313-5.8785 4.9005-.0384.0923-.1035.1711-.187.2265s-.1817.0849-.282.0847c-.0643-.0005-.1279-.0128-.1877-.0363-.1243-.0496-.2238-.1463-.2765-.2688-.0528-.1225-.0545-.2608-.0049-.3846 1.0277-2.5556 3.3416-4.5033 6.5164-5.4865.0637-.0197.1307-.0265.1971-.0203.0664.0063.1309.0257.1897.0569.0588.0313.1108.0738.1531.1252.0422.0514.0737.1106.0928.1742zm29.0881 52.0651c-.1333-.012-.2658.03-.3685.115s-.1673.208-.1798.34c-.3887 4.253 1.7063 15.516 4.6132 22.118 3.6563 8.298 8.6854 11.325 8.897 11.45.078.046.166.07.256.069.111 0 .218-.036.306-.103s.151-.16.18-.266c.03-.106.023-.219-.018-.321s-.115-.187-.21-.243c-.049-.029-4.9709-3.008-8.4854-10.988-2.7767-6.305-4.9082-17.528-4.534-21.625.0116-.132-.0299-.263-.1155-.365s-.2082-.166-.341-.178zm105.7749 41.538c0 9.288-43.666 14.838-85.884 14.838-42.2177 0-85.8843-5.55-85.8843-14.838 0-2.943 4.3442-5.623 12.9139-7.97 8.0048-2.191 19.3636-3.987 32.8466-5.193.1074-.009.2149.016.3068.072s.1634.14.204.239c.0195.046.0321.094.0375.143.0118.132-.0298.265-.1158.367s-.2093.166-.3428.178c-13.4236 1.2-24.7199 2.985-32.6684 5.162-7.8443 2.154-12.1677 4.64-12.1677 7.005 0 5.408 22.3487 11.125 57.7938 13.107-.9454-1.945-5.9619-12.401-11.3109-26.062-1.7167-4.385-3.4677-9.1-5.1291-13.971-7.2168-21.149-12.1948-38.27-14.025-48.215-.5471-3.042-.9143-6.1146-1.0996-9.2002-.0626-.8982-.1043-1.5475-.173-1.8752-.2794-1.396-.7213-2.8854-1.1122-4.1984-.4867-1.6397-.9078-3.0554-.9766-4.0791-.026-.3848.3304-.9532.8891-1.5848-.043-.0504-.0753-.109-.0949-.1721-.8442-2.7412-1.7416-4.0563-2.6912-5.4492-.5367-.7914-1.0923-1.6004-1.6311-2.679-.0079-.0173-.0148-.0349-.0209-.0529-.5096-.249-.9596-.6041-1.3192-1.0413-.3597-.4371-.6207-.9461-.7653-1.4925-.1329-.5079-.2373-1.0228-.3127-1.5422-.0048-.0028-.0093-.0059-.0136-.0093-.149-.1318-.3127-.2697-.4836-.4149-1.0027-.8453-2.3754-2.0038-3.2478-3.8686-.1855-.3951-.3721-.8463-.5545-1.3182-1.4112-.8837-3.5437-2.2185-4.3077-5.3227-.1553-.6295-.2887-1.4157-.443-2.3263-.5347-3.1592-1.429-8.431-4.8008-16.025-.5311.0749-1.0666.1151-1.603.1203-.6525 0-1.1622-.0799-1.4498-.2489-1.0934-.6431-4.5986-5.9481-6.0505-9.156-.5816-1.2861-.0354-2.3989.1928-2.7754l-8.20485-13.6344c-.06425-.1083-.0853-.2367-.05899-.3597s.09805-.2317.20104-.3046.22973-.1046.35513-.089c.1254.0157.24033.0776.32206.1735.01736.0198.03305.0409.0469.0633l8.99701 14.9536c.0258.0442.0444.0922.0552.1421 2.5933-.1556 9.095-1.1761 12.7524-7.3492 0-.0063-.0073-.0125-.0104-.0197l-7.0219-15.6071c-.0152-.03313-.0264-.06795-.0333-.10372-.0252-.12107-.0047-.24713.0576-.35411.0623-.10697.162-.18738.28-.22586.1181-.03848.2463-.03234.3601.01724.1138.04959.2053.13915.257.25159l6.3381 14.08456c.4096-.0218 1.1851.1711 1.8761 1.675.4576.9904.9558 2.0131 1.4384 3.0077 1.2632 2.5929 2.4567 5.0457 2.8903 6.7892.1334.5341-.0918 1.3317-.5816 2.2174.4638.6908 3.8033 5.6006 6.9385 8.7121.9839.976 1.948 1.8617 2.8798 2.7184 2.1659 1.9903 4.0347 3.7088 5.0124 5.5353 1.3633 2.5513 1.6311 8.2391.9995 9.9213.4586 1.4292.8703 2.8812 1.1653 3.9682.5597 2.0608.7952 3.8126 1.0235 5.5073.2689 1.9944.5482 4.0563 1.355 6.6989.2934.0031.5855.0403.8703.111.4659.1245.7932.3485.9704.6669.5034.9033 1.1465 2.6105 1.8198 4.4183.2543.6762.5117 1.3648.7671 2.0224.1042.28.4065.7343.8182 1.3618 1.0704 1.6314 2.8621 4.3633 4.9634 9.3696 9.2263 21.9876 14.4825 37.6546 14.5346 37.8106.0423.126.0323.264-.0277.384-.06.119-.1651.209-.2922.252-.0125 0-.024 0-.0355.008-.1234.031-.254.014-.3659-.046-.1118-.061-.1966-.161-.2375-.281-.0522-.155-5.2969-15.788-14.5076-37.7397-2.0658-4.9223-3.8263-7.6054-4.8779-9.2089-.4618-.7042-.7672-1.1688-.9141-1.5484-.2564-.6617-.5212-1.3535-.7713-2.0339-.6629-1.7714-1.2893-3.4433-1.7563-4.2814-.0291-.0518-.1355-.1265-.3481-.1835-1.085-.2883-3.599.2157-5.6127 1.425-2.4275 1.4572-4.8341 3.8696-4.978 4.4245.0678.9127.4899 2.3326.9381 3.8375.3971 1.3338.8463 2.8459 1.134 4.2876.0782.3899.123 1.0371.1908 2.0027.1848 3.0475.5491 6.0815 1.0912 9.0865 1.8188 9.895 6.7874 26.966 13.9885 48.073 7.3513 21.547 16.4567 40.053 16.5484 40.241.0273.057.0439.118.049.18.9422.05 1.8938.097 2.8548.142.2564-.609 1.0048-1.937 2.8663-2.739.2783-.12.5858-.249.9141-.385-.2085-.951-1.0913-4.925-1.997-8.266-.7713-2.847-1.429-4.857-2.3285-6.075-.8078-1.092-2.0272-1.391-3.3186-1.708-1.6354-.401-3.4886-.856-4.0305-3.227-1.3185-5.771-1.1257-13.727-.1178-17.538.3523-1.331 1.382-2.575 2.293-3.672.6556-.793 1.2779-1.544 1.5415-2.191-.4169-.173-.7952-.506-1.1173-.987-.0742-.111-.1011-.246-.0748-.377.0262-.131.1036-.246.215-.319.1114-.074.2477-.101.379-.075s.2467.103.3209.214c.1318.206.302.386.5013.529.0751-.715.0397-1.518 0-2.304-.0594-1.303-.1157-2.535.2846-3.508.4086-.993 1.0694-2.178 1.9699-3.526.3224-.484.6751-.99 1.0579-1.516.0094-.013.0219-.024.0323-.036.0157-.881.0688-1.785.1658-2.711.5211-5.039 3.5917-7.779 8.8646-7.908.065-.004.1301.005.1914.027s.1176.056.1657.1c.048.043.0868.096.1141.155s.0425.123.0447.187v.02c.0023.066-.0087.132-.0323.194s-.0593.119-.105.167c-.0458.049-.1006.087-.1615.114s-.1265.042-.1931.044c-4.7601.121-7.4138 2.479-7.887 7.007-.9787 9.377 2.8048 16.752 2.8434 16.824.0405.077.0603.163.0577.249-.0027.086-.0278.171-.0729.245-.0452.074-.1088.135-.1846.177-.0759.042-.1615.064-.2484.064-.0259 0-.0517-.002-.0772-.007-.0782-.011-.1526-.041-.2171-.087-.0644-.046-.1172-.106-.1539-.176-.1366-.261-2.8465-5.532-3.1029-12.964-.9985 1.458-1.7156 2.713-2.1388 3.74-.3127.767-.2647 1.891-.2084 3.082s.1105 2.403-.1939 3.441c-.2606.888-1.011 1.794-1.8052 2.754-.8839 1.066-1.7969 2.17-2.0929 3.289-.9777 3.694-1.1601 11.43.1261 17.057.4033 1.763 1.676 2.08 3.2873 2.475 1.3436.33 2.8663.704 3.8909 2.089.9964 1.348 1.6677 3.372 2.49 6.409.8641 3.188 1.7062 6.949 1.971 8.142 2.4077-.965 5.4199-2.082 6.5351-2.416-2.5994-5.372-5.7524-14.054-7.6524-26.96-.8266 1.395-1.7907 1.824-2.6631 1.824-.3166-.003-.6309-.054-.9318-.152-.1276-.041-.2334-.131-.2943-.25s-.0718-.257-.0304-.384c.0415-.127.1319-.233.2515-.293.1195-.061.2583-.072.3859-.03.469.149 1.8886.6 3.0226-2.559-.1897-1.419-.3634-2.886-.5211-4.402-.0134-.132.0265-.265.1111-.368.0846-.104.2069-.17.3402-.183h.0104c.1316-.011.2621.03.3637.114.1015.084.1659.204.1793.335 2.8705 27.72 11.7935 38.879 12.4918 39.712 2.224.029 4.482.044 6.775.044 6.072 0 11.894-.098 17.468-.294-2.697-2.854-6.483-4.626-10.479-6.495-4.717-2.207-9.595-4.49-13.63-8.816-.091-.098-.139-.227-.134-.361.005-.133.063-.258.161-.349s.229-.139.362-.134c.134.005.26.063.352.16 3.901 4.185 8.688 6.424 13.319 8.591 4.338 2.03 8.436 3.946 11.295 7.282.02.024.038.049.053.077 5.941-.221 11.57-.545 16.844-.953-2.537-1.859-9.694-7.81-11.459-16.88-.857-4.407-.834-9.349-.819-14.58.031-8.329.063-16.94-3.739-23.051-8.798-14.141-26.387-13.006-30.6142-11.927-.128.028-.262.005-.3736-.063-.1117-.068-.1923-.177-.2249-.304-.0326-.126-.0146-.26.0502-.373.0648-.114.1713-.198.2971-.234 2.3796-.606 8.1294-1.212 14.6004.368 5.194 1.267 12.379 4.379 17.124 12.005 3.954 6.356 3.922 15.113 3.889 23.583-.006 1.704-.011 3.376.013 5.007.049 3.329.225 6.485.788 9.379 2.025 10.411 11.8 16.777 11.898 16.84.044.029.083.064.116.104 29.55-2.414 47.715-7.541 47.715-12.417 0-2.755-5.963-5.686-16.358-8.041-10.565-2.393-25.647-4.209-42.467-5.113-.134-.007-.259-.067-.349-.166-.089-.1-.136-.23-.129-.363.004-.056.017-.11.039-.162.04-.095.109-.176.197-.232.089-.055.192-.083.296-.079 27.584 1.474 59.787 6.072 59.787 14.148zm-160.2458-140.8474c3.0747-1.757 4.8664-4.8747 4.6725-5.6515-.4075-1.6408-1.579-4.0449-2.8141-6.5932-.4837-.9936-.9839-2.0214-1.4457-3.0201-.0167-.0363-.0333-.0695-.05-.1038-4.337 7.9114-12.9244 8.3408-14.7286 8.3408-.1313 0-.2261 0-.2803 0 .0287.1348.0717.2662.1282.3921 1.5842 3.4983 4.9519 8.2972 5.6439 8.7027.6108.3588 5.4877-.1338 8.8741-2.067zm10.9909 35.6624c.3127-.0104.4753-.1576.5388-.4781.1251-.6223.1981-1.5557.2825-2.6385.222-2.8366.5264-6.7208 2.0252-10.5437.0109-.0284.0249-.0555.0417-.0809-.1439-.6534-.9319-1.3483-1.8439-2.1417-1.2361-1.0807-2.7735-2.4249-3.6167-4.4463-.3679-.8816-.3064-1.8036.1616-2.4062.3877-.4989 1.0016-.7177 1.727-.6171.4253.0591 1.0131.4626 2.1961 1.2954.8245.5819 1.7594 1.2446 2.6349 1.7248 1.0298.5694 3.0091 1.898 3.894 3.266.3752.5808.7807 1.5163 1.1788 2.5929.0876-2.1781-.2626-5.6753-1.2007-7.4302-.8963-1.676-2.7099-3.3407-4.8049-5.2687-.9381-.8629-1.9095-1.7549-2.908-2.7443-2.8955-2.8698-5.8639-7.0993-6.8155-8.4943-1.0581 1.4688-2.4132 2.701-3.9784 3.6176-1.6447.9386-3.8669 1.648-5.8139 2.0183 3.3353 7.5805 4.2296 12.8534 4.7674 16.0261.1501.8909.2804 1.6594.4274 2.2537.4773 1.9384 1.5228 3.0679 2.7537 3.9681-.5211-1.5194-.9016-2.8739-.9276-2.9662-.0208-.0644-.0284-.1322-.0222-.1996.0061-.0673.0259-.1327.058-.1922.0321-.0596.0759-.1121.1289-.1544s.114-.0736.1794-.092c.0653-.0183.1338-.0233.2011-.0148.0674.0086.1324.0306.191.0647.0587.0341.1098.0796.1504.1338s.0698.116.0858.1817c.0094.0363 1.0548 3.713 1.9981 5.7272.6879 1.4696 1.7218 2.4456 2.6297 3.2245-.0553-.4636-.1095-.9511-.1658-1.4583-.2303-2.0743-.4909-4.4286-1.0006-6.4594-.016-.064-.0193-.1305-.0095-.1958.0097-.0652.0323-.128.0664-.1845.0341-.0566.0791-.106.1324-.1452.0533-.0393.1138-.0678.1782-.0838.0643-.016.1312-.0192.1967-.0095.0656.0097.1287.0322.1855.0661.0569.034.1065.0787.1459.1317.0395.0531.0681.1133.0842.1773.5263 2.0961.7911 4.4847 1.0246 6.5921.198 1.7788.3679 3.3189.6493 4.3405.37 1.3535 1.5395 2.065 2.193 2.0432zm4.1253 8.3159c1.1862-1.1346 2.7527-2.316 3.8075-2.9497 1.3773-.8157 2.9022-1.3545 4.4881-1.5858-.7786-2.6084-1.0548-4.6495-1.3216-6.6253-.2345-1.7393-.4555-3.3821-.9985-5.3797-.4076-1.5008-.8057-2.8532-1.183-4.0221-.0225-.0451-.0379-.0934-.0459-.1431-.6493-1.9976-1.2309-3.4382-1.6801-4.133-.7786-1.2031-2.6527-2.4436-3.5355-2.931-.9235-.5103-1.8824-1.1865-2.7276-1.7829-.6786-.4771-1.5218-1.0724-1.7563-1.1212-.3575-.0497-.6254.0301-.7838.2375-.2397.3112-.2512.8733-.0281 1.4054.7535 1.8057 2.1335 3.0077 3.3499 4.077 1.0819.9459 2.0157 1.7632 2.1888 2.7848.125.7488.0146 1.6594-.1136 2.7059-.2085 1.7217-.4691 3.8655.2168 6.2032.0374.1279.0223.2654-.0421.3822s-.1728.2034-.3014.2406c-.1285.0373-.2667.0222-.3841-.0419-.1173-.0641-.2043-.1719-.2418-.2998-.4638-1.5796-.5315-3.0524-.4638-4.3758-.4409 2.2102-.6045 4.299-.7379 6.001-.0907 1.1595-.1626 2.0743-.2981 2.7557-.1459.726-.6462 1.1979-1.355 1.2757.3992.7146.8036 1.3079 1.2257 1.9281.9162 1.342 1.8595 2.7256 2.7214 5.3963zm51.1659 110.6451c-.6848-.91-1.8928-2.681-3.3082-5.471-1.0017.261-5.8368 2.065-8.4509 3.193-1.2507.536-1.8761 1.341-2.1721 1.867 4.4623.197 9.1061.335 13.9312.411zm-18.0055-21.933c.0356.096.1.179.1847.238.0846.059.1853.09.2885.09.0598.001.1191-.01.1751-.031.1167-.042 2.8819-1.091 4.1545-4.551.0392-.123.029-.257-.0284-.373-.0575-.116-.1577-.206-.2799-.251-.1222-.044-.257-.04-.3762.012s-.2138.147-.2639.267c-1.1038 3-3.4479 3.913-3.5563 3.955-.0621.022-.1191.057-.1677.102-.0486.044-.0879.098-.1156.158s-.0432.125-.0458.19c-.0025.066.008.132.031.194zm-26.7367-129.2689c.0613.0253.127.0383.1934.0383.0663 0 .132-.0131.1933-.0384.0613-.0254.117-.0625.1638-.1093.0469-.0468.084-.1023.1092-.1634l1.5051-3.63c.0252-.0613.0381-.1269.0379-.1932-.0003-.0662-.0136-.1317-.0393-.1929-.0257-.0611-.0633-.1165-.1105-.1632s-.1033-.0836-.1648-.1088c-.0616-.0251-.1276-.0379-.1942-.0377-.0665.0003-.1324.0136-.1938.0391-.0614.0256-.1172.063-.1641.11s-.084.1027-.1093.164l-1.505 3.63c-.0252.0612-.0379.1268-.0375.1929s.0139.1315.0397.1924c.0259.0609.0636.1162.111.1625.0473.0464.1034.083.1651.1077zm7.8953 7.1719c.1097-.0008.2162-.0372.3033-.1037l2.7276-2.038c.1011-.0821.1664-.2.1821-.3289.0158-.129-.0192-.2589-.0976-.3628-.0783-.1038-.194-.1735-.3228-.1944-.1289-.0209-.2608.0086-.3683.0823l-2.7276 2.039c-.0851.0632-.148.1514-.1798.2522s-.0308.209.0028.3092.0981.1873.1843.2489c.0863.0616.1898.0945.296.0941zm4.1629 9.7617c.0184.001.0368.001.0552 0l3.4708-.3713c.068-.0042.1345-.0221.1954-.0525s.115-.0727.159-.1245c.0441-.0517.0771-.1118.0972-.1766.0202-.0648.0269-.1329.0199-.2004-.0071-.0674-.0277-.1327-.0608-.192-.033-.0593-.0778-.1114-.1315-.153-.0538-.0417-.1155-.0721-.1814-.0894s-.1346-.0212-.202-.0114l-3.4708.3723c-.1301.0116-.2505.073-.3361.1712-.0855.0981-.1295.2255-.1226.3553.0069.1297.0641.2518.1595.3404.0955.0887.2218.1371.3523.135zm-.5097 8.9641 3.1446 1.7206c.1173.0643.2555.0795.3841.0423.1286-.0371.2371-.1236.3017-.2404.0645-.1167.0798-.2542.0425-.3822s-.1242-.236-.2416-.3002l-3.1394-1.7217c-.1172-.0613-.254-.0745-.3808-.0365-.1269.038-.2337.124-.2975.2395s-.0795.2514-.0436.3783c.0358.1269.1203.2347.2352.3003zm-31.0977 15.9545c.1265-.0001.2484-.0475.3415-.1328.093-.0853.1505-.2022.1609-.3277l.2585-2.9943c.0073-.1305-.0368-.2588-.1229-.3576-.0862-.0988-.2076-.1603-.3385-.1715-.131-.0111-.2612.0288-.363.1115s-.1672.2017-.1824.3316l-.2575 2.9953c-.0057.0657.0016.1319.0217.1948.02.0629.0522.1212.0949.1717s.095.0921.1538.1224c.0589.0304.1232.0489.1893.0545zm-10.6886-4.9151 2.6568-2.904c.0835-.0996.1251-.2274.1161-.3568-.0089-.1294-.0677-.2503-.1642-.3376-.0964-.0873-.223-.1341-.3533-.1307s-.2542.0567-.3459.1489l-2.6568 2.904c-.0835.0996-.1251.2274-.1162.3568.009.1294.0678.2504.1642.3376.0965.0873.223.1341.3533.1307s.2543-.0567.346-.1489zm-2.0398-12.7071c-.0392-.1263-.1268-.2321-.2438-.2946-.1171-.0625-.2541-.0767-.3815-.0394l-3.2634.9946c-.1152.0358-.2138.1113-.2778.2131-.0641.1017-.0895.2229-.0717.3416.0179.1188.0779.2273.1691.3058.0912.0786.2077.1221.3284.1227.0501-.0001.1-.0074.148-.0217l3.2634-.9947c.1269-.0403.2327-.1288.2944-.2463.0616-.1175.0742-.2545.0349-.3811zm-1.0631-9.9391c.1235-.0001.2427-.0453.335-.1269s.1514-.194.1662-.316c.0147-.122-.0159-.2452-.0862-.3462-.0702-.1011-.1752-.1731-.2951-.2024l-3.3916-.8297c-.0644-.0157-.1313-.0186-.1968-.0085-.0655.01-.1284.0328-.1851.0671-.1144.0691-.1966.1807-.2284.3101s-.0106.2661.0589.38.1816.1956.3116.2273l3.3916.8297c.0393.0098.0795.015.1199.0155z" fill="#221b0b" opacity=".76"></path></svg>