<svg xmlns="http://www.w3.org/2000/svg" fill="none" height="229" viewBox="0 0 203 229" width="203"><ellipse cx="70.0332" cy="86.4544" fill="#e4f4ee" rx="70.0332" ry="86.4544" transform="matrix(-.434354 -.900742 -.900742 .434354 218.578 177.404)"></ellipse><path d="m114.161 69.4214c.113.0078.226.0123.339.0123 4.099 0 5.328-5.5321 5.38-5.7739.018-.0844.015-.1719-.007-.2552-.023-.0833-.065-.1601-.123-.224-.059-.0636-.131-.1127-.212-.1434s-.168-.0421-.254-.0332c-1.268.116-2.541.1611-3.814.135-2.135-.0543-4.266-.2266-6.382-.5164-.084-.0121-.17-.0046-.251.022-.08.0265-.154.0714-.214.1311s-.106.1326-.133.2128-.035.1656-.023.2494c.01.0585.89 5.8347 5.694 6.1835zm1.289-5.1913c1.356.0213 2.458-.0293 3.152-.0754-.459 1.4083-1.743 4.3701-4.367 4.18-3.044-.2249-4.169-3.1417-4.533-4.5321 1.907.2389 3.826.3816 5.748.4275zm.279-4.6491c.93-.9562 1.06-1.369 1.056-1.5298-.005-.1609-.179-.3094-.46-.5625-.443-.3982-1.051-.9437-1.243-1.9651-.388-2.0912.271-3.6131.299-3.6761.058-.1323.167-.2362.302-.2887.136-.0525.286-.0494.419.0086s.237.1662.29.3008.05.2846-.009.4169c0 .0123-.548 1.2958-.226 3.0371.121.6581.498.9955.897 1.3499.375.3374.798.7176.82 1.3352.021.6175-.387 1.3206-1.363 2.324-.101.1044-.239.1646-.385.1673-.146.0028-.286-.0522-.391-.1527s-.166-.2384-.168-.3834c-.003-.1449.052-.285.153-.3894zm-9.649-13.7684c-.117-.0114-.227-.0598-.314-.1381s-.146-.1823-.169-.2968c-.023-.1144-.008-.2332.041-.3388.05-.1056.133-.1925.236-.2477.439-.2361.902-.4246 1.381-.5625.815-1.2171 1.518-2.514 2.198-3.7683 2.147-3.9516 4.166-7.6851 8.803-6.1868.068.0221.132.0574.186.1038.055.0464.1.1031.132.1668.033.0638.053.1333.058.2046.006.0713-.003.143-.025.211-.022.066-.056.1275-.1.1811-.071.0835-.164.1442-.269.1745-.105.0302-.217.0286-.321-.0046-3.585-1.1598-5.186 1.3971-7.501 5.6659-.528.9753-1.083 1.9978-1.703 3.0001 1.042-.0723 2.087.0996 3.051.5017.131.0616.233.1726.282.3085.049.136.041.2858-.02.4164-.062.1307-.174.2316-.31.2804-.137.0488-.287.0417-.419-.0199-1.069-.4307-2.244-.5283-3.371-.2801-2.202 3.162-5.269 5.8493-10.5809 5.8493-.113 0-.226 0-.3458-.0056-.6934-.0159-1.3853-.0711-2.0724-.1654-.1439-.0195-.2741-.0952-.3619-.2102-.0878-.1151-.1262-.2602-.1065-.4034.0196-.1432.0956-.2728.2112-.3602.1156-.0875.2613-.1256.4052-.1061 5.4781.7458 8.7041-1.198 11.0101-3.9708zm13.684 7.0563c.122-.8707.822-1.4927 1.563-1.3904.741.1024 1.243.8909 1.13 1.7605-.113.8695-.821 1.4927-1.563 1.3892-.741-.1035-1.25-.8864-1.13-1.7593zm-12.946-.1451c.054-.8763.763-1.5456 1.582-1.495s1.436.8032 1.382 1.6794c-.054.8763-.764 1.5456-1.582 1.4939-.818-.0518-1.437-.7987-1.382-1.675zm8.434-27.3524c-.012-.0705-.011-.1427.005-.2126.015-.0698.045-.136.086-.1946s.094-.1085.154-.1469c.061-.0384.129-.0646.199-.0769.098-.0169.199-.0304.303-.0394 2.568-.2419 7.129 1.721 10.515 6.0507.686.8801 1.294 1.8176 1.818 2.802 2.79 5.2262 1.271 7.2251-.339 9.3365-.824 1.0854-1.676 2.2081-2.096 3.9044-.006.0245-.014.0486-.024.072 0 .9876-.069 1.6963-.092 1.9291-.08.7503-.189 1.4837-.294 2.1924l-.034.225c-.019.1292-.084.2473-.183.3328s-.226.1326-.357.1329c-.028 0-.055-.0023-.082-.0068-.018-.0034-.036-.0079-.054-.0135-.131-.0324-.245-.1122-.32-.2238-.076-.1117-.106-.2472-.087-.3802l.033-.225c.104-.6974.211-1.4185.288-2.1463.104-1.2205.104-2.4476 0-3.6682-.091.0312-.189.0378-.283.0192-.904-.1879-1.796-.3049-3.503.1563-.047.0125-.095.0189-.144.0191-.133 0-.261-.0481-.361-.1352s-.164-.2073-.182-.3383c-.017-.131.013-.2638.087-.3739.073-.1101.184-.1899.313-.2246 1.909-.514 2.971-.3836 3.965-.1811-.325-2.4342-1.165-5.2441-3.213-6.9742-.055-.0462-.1-.1027-.133-.1664-.033-.0636-.053-.133-.059-.2043-.005-.0713.003-.143.025-.2111.022-.0682.057-.1313.103-.1859.047-.0546.104-.0995.167-.1323.064-.0327.134-.0526.206-.0585.071-.0059.143.0023.212.0241.068.0219.132.0569.187.1031 2.451 2.0642 3.356 5.3769 3.657 8.1059.412-.7069.874-1.3835 1.382-2.0248 1.571-2.0675 2.706-3.5613.243-8.1733-3.104-5.8145-8.774-8.7223-11.481-8.2487-.14.0234-.285-.0091-.402-.0904-.117-.0814-.198-.2052-.225-.3449zm-40.8404 37.8958c-2.2928-10.5524-.5526-23.0734 2.7222-31.394.5922-1.5372 1.306-3.0252 2.1346-4.45 3.0329-5.1137 6.3076-6.5243 8.5213-6.7999 2.4736-.3116 4.9788.5838 6.8705 2.459.4064-.1659.8213-.3105 1.243-.4331 9.3418-2.5748 17.2718.6659 17.6058.8054.107.0449.196.1226.256.2217.059.0991.086.2145.075.3295-.005.0556-.018.1102-.039.162-.056.1331-.163.2384-.297.2931-.135.0546-.285.0539-.419-.0018-.078-.0326-7.927-3.2306-16.8892-.7593-.4836.1328-11.865 3.4208-13.6651 17.0981-.9481 7.1992 3.3584 13.5851 6.8693 17.4782-.3178-.5619-.558-1.1638-.7142-1.7896-.5096-1.9764-.0384-3.8628 1.2329-4.9236.7006-.5849 2.2283-1.3881 4.7098-.3656.0848.0349.1695.072.2565.1125.1272.0629.2248.1724.2724.3055.0476.1332.0415.2795-.017.4082-.0586.1287-.1651.2298-.297.2819-.1319.0522-.279.0513-.4104-.0023-1.5469-.6997-2.9007-.6648-3.8115.0956-.9435.7874-1.2791 2.2497-.8757 3.8178.3469 1.3408 1 2.3397 2.0023 3.0371.4035-.6411.8668-1.2834 1.3459-1.9482l.2915-.405c-.1327-.0392-.2454-.1273-.3153-.2463-.2698-.4352-.6184-.8166-1.0283-1.1249-.0585-.0415-.1083-.0941-.1464-.1547-.0381-.0607-.0639-.1282-.0758-.1988-.0119-.0705-.0097-.1427.0064-.2125.0161-.0697.0459-.1356.0876-.1939.0417-.0582.0945-.1078.1554-.1457.061-.038.1288-.0636.1997-.0755.0709-.0118.1434-.0097.2134.0064.0701.016.1363.0457.1948.0872.5184.3875.9602.8673 1.3029 1.4151.7775-1.1249 1.5526-2.3814 2.1369-3.8325.0267-.0664.0663-.127.1165-.1783.0502-.0512.1101-.0921.1762-.1203s.1372-.0432.2091-.044c.0719-.0009.1433.0123.2101.0389.0667.0266.1276.066.1791.116.0514.05.0925.1096.1208.1754.0284.0658.0434.1366.0443.2082.0009.0715-.0124.1426-.0391.2091-.8577 2.1372-2.077 3.8245-3.1539 5.3172-.4701.6525-.904 1.2588-1.2803 1.846.4553.1992.9287.3547 1.4137.4645.1294.0316.2428.109.319.2178s.11.2415.0951.3734c-.015.1318-.0777.2536-.1763.3428-.0987.0891-.2267.1394-.3599.1414-.0418 0-.0835-.0046-.1243-.0135-.5902-.1328-1.1653-.325-1.7165-.5737-.035.0675-.0678.135-.1005.2025.904.82 1.4938 1.2779 1.5209 1.2981.0573.0433.1054.0974.1417.1593.0362.0618.0598.1302.0695.2011.0096.071.0051.1431-.0132.2123-.0184.0692-.0504.1342-.094.1911-.0113.0146-.0226.0281-.035.0416-.0513.0546-.1132.0981-.182.1279s-.143.0452-.2181.0453c-.1198.0001-.2363-.0394-.331-.1124-.095-.072-.565-.4354-1.2713-1.0507-.2463.9562-.209 1.9539.252 3.1137.0435.132.0348.2756-.0244.4015-.0593.1258-.1645.2244-.2943.2757-.1297.0512-.2743.0512-.404 0-.1298-.0512-.2351-.1498-.2943-.2757-.6532-1.6423-.5887-3.0281-.1288-4.3262-1.1005-1.0311-2.1393-2.1256-3.1109-3.2779.7164 7.567 2.8521 14.0609 5.0669 15.1453.1302.0638.2296.1766.2764.3134.0467.1368.0369.2864-.0272.4161-.0642.1296-.1774.2285-.3148.2751-.1375.0465-.2878.0367-.418-.0271-.2679-.1354-.5168-.3052-.7402-.5051-2.7425-2.4016-4.6002-10.1486-5.0647-17.1509-3.0227-4.0203-5.789-9.5614-4.972-15.7819 1.4069-10.6739 8.4016-15.3433 12.1272-17.0981-1.6069-1.4319-3.6397-2.1046-5.6432-1.8526-2.825.3566-5.4941 2.5264-7.7168 6.2734-4.4421 7.4894-7.4253 22.6515-4.728 35.0588.6588 3.0372 1.469 5.6424 2.1832 7.9428.6904 2.2261 1.2871 4.1485 1.5537 5.8493.3967 2.5264-.0452 4.7132-1.2136 5.9989-.4463.4904-1.0122.8577-1.643 1.0664-.4925.1612-1.0082.2414-1.5267.2373-.1062 0-.2135 0-.322-.009-.1416-.0124-.2728-.0792-.3659-.1862-.0931-.1069-.1407-.2457-.133-.387.0078-.1413.0704-.2741.1747-.3703.1042-.0962.242-.1483.3841-.1453 1.1164.0618 1.999-.2543 2.6193-.9371.9323-1.0258 1.2849-2.9314.9447-5.1001-.2542-1.6198-.8407-3.5074-1.5187-5.693-.7153-2.3262-1.5334-4.9573-2.2035-8.0383zm12.7318 16.8989c1.3481-2.8032 1.1017-6.8279-.6136-10.0113-.0378-.0634-.0624-.1336-.0722-.2067-.0097-.073-.0046-.1472.0153-.2182.0198-.071.0538-.1372.1001-.1947.0462-.0575.1037-.1051.1689-.14.0652-.0348.1368-.0561.2105-.0626s.148.0019.2184.0247c.0703.0229.1353.0596.191.1082.0557.0485.1009.1077.133.1741.6295 1.1803 1.0803 2.4467 1.3379 3.7582.5074 2.5546.2859 5.1879-.7017 7.243-.8396 1.7458-2.1583 2.8673-3.7143 3.1587-.0335.0067-.0676.0101-.1017.0101-.1359-.0011-.2665-.0524-.3665-.1439s-.1623-.2167-.1748-.3514c-.0126-.1346.0256-.2691.107-.3773.0815-.1082.2004-.1825.3337-.2084 1.5424-.2925 2.4442-1.5546 2.929-2.5625zm-4.0929 1.0057c.1377.0454.2518.1435.317.2725.0652.1291.0764.2786.031.4159-.1693.5328-.4313 1.032-.774 1.4747-.38.4761-.8644.8592-1.4162 1.1199s-1.1563.3921-1.7671.384c-.2466.0014-.4927-.0223-.7345-.0708-.1105-.0228-.2112-.0792-.2881-.1614s-.1263-.1862-.1413-.2976c-.0107-.061-.0107-.1234 0-.1845.0143-.0703.0424-.1371.0827-.1965.0404-.0594.0921-.1103.1523-.1498.0602-.0394.1277-.0666.1985-.0799.0708-.0134.1435-.0126.214.0022.1006.0202 2.5527.469 3.4307-2.1812.0225-.0683.0584-.1316.1055-.1862.0472-.0545.1047-.0992.1693-.1315s.135-.0516.2071-.0567.1445.004.2131.0269zm73.8705 48.4322c-.405-1.96-.843-4.075-1.312-6.371-2.668-13.07-4.904-21.311-9.075-27.4222-3.131-4.5883-11.495-7.2588-18.871-9.6154-2.676-.8537-5.208-1.6625-7.332-2.5073 0-.2475 0-.4972-.023-.7458-.156-1.9494-.998-3.6097-2.31-4.5546-.647-.4637-1.37-.8144-2.136-1.0371-.018-.2329-.037-.6288-.028-1.2205.048-.018.095-.036.14-.0551 1.716-.7537 3.668-2.6997 5.804-5.7762 1.896-2.7346 2.909-6.1767 3.126-7.8235.226-1.7121.152-3.7717.08-5.7627l-.017-.4747c-.005-.1224-.051-.2394-.131-.3325-.08-.093-.189-.1566-.31-.1805-.041-.0086-.083-.0128-.125-.0123-.072.0023-.143.0187-.208.0482-.065.0296-.124.0717-.173.1239-.049.0523-.088.1136-.113.1806s-.036.1382-.034.2097l.016.4747c.071 1.9471.143 3.9607-.071 5.5816-.204 1.5422-1.155 4.7717-2.938 7.3465-2.018 2.9112-3.817 4.7245-5.344 5.3994-2.587 1.135-10.396-1.1732-14.552-5.0034-.053-.0516-.115-.0922-.183-.1194-.068-.0271-.141-.0404-.215-.0388-.073.0015-.146.0177-.213.0477s-.127.0731-.177.1268-.089.1169-.114.1858c-.025.0688-.036.142-.032.2151s.023.1447.056.2104c.032.0657.077.1243.133.1722 3.458 3.189 9.572 5.5883 13.481 5.5883.34.0011.68-.0203 1.017-.0641 0 .2868 0 .5253.014.7177-.786-.1042-1.583-.0821-2.362.0652-1.884.3566-3.521 1.4297-4.493 2.9449-2.227 3.4736-.498 7.2836 1.659 9.4906l.011.009.037.5725.241 3.6075.029.4297c-1.104 1.0416-1.404 1.6434-1.516 2.0428-.09.2976-.095.6144-.013.9145.081.3001.245.5716.473.784.233.2115.678.4792 1.39.459v.0393l.073 1.0923c.003.0303.008.0604.015.09-1.106.9822-2.111 2.0712-2.341 2.8952-.533 1.894.1 3.458.791 4.737.005.01.012.019.018.028-.1.169-.178.349-.234.537-.481 1.711-.434 2.924.179 4.209-.652 1.002-.911 1.832-.768 2.475.052.231.159.446.313.627.153.182.347.324.567.414.221.098.46.148.701.144.525 0 1.116-.201 1.746-.533l.32 4.801v.046c.177 1.163 1.37 1.883 3.074 1.883.113 0 .216 0 .327-.008 1.46-.075 3.058-.712 3.116-1.957v-3.981c.663 2.311 1.717 3.945 2.749 5.54.328.509.638.988.939 1.493.745 1.253 4.589 9.327 8.09 17.803-.806.858-2.072 2.612-1.968 5.097.071 1.694 2.233 4.63 4.44 7.493l.357.464c.363.473.947.764 1.738.868.034 0 .069.006.103.01-.308 6.017.358 10.482.846 13.757.678 4.552.99 6.63-1.599 8.037-9.094 4.937-21.244 6.299-29.823 6.574-14.6822.464-29.9452-3.556-31.3815-6.238-.8362-1.56-.5921-4.681-.3096-8.297.226-2.864.4769-6.11.2893-9.449-.3944-7.004-1.3673-11.455-2.147-15.031-.5515-2.526-1.0283-4.707-1.191-7.181-.156-2.39.0384-5.86.2452-9.534.3209-5.726.6859-12.217-.104-17.003-.0237-.143-.1033-.27-.2213-.354-.1181-.085-.2649-.119-.4081-.095-.1433.024-.2713.103-.3558.22-.0846.118-.1188.264-.0951.407.7695 4.667.4091 11.094.0904 16.76-.2079 3.712-.4045 7.209-.2441 9.665.1673 2.556.6532 4.774 1.2148 7.342.1808.829.3672 1.687.5526 2.587-.1432.375-.2908.763-.443 1.163-2.7572 7.26-6.9247 18.231-15.0833 21.461-1.5041.595-3.1268.425-4.8229-.509-3.9369-2.165-7.7598-8.223-9.0954-14.306.4354.046.873.068 1.3108.066 2.1244 0 4.5754-.472 6.5687-1.349 2.9911-1.317 5.702-4.024 6.5156-6.997l.3266.498c1.2136 1.85 2.8747 4.387 3.4736 6.127.037.108.1067.201.1995.267s.204.102.3181.102c.0604.001.1203-.009.1774-.029.1369-.047.2494-.146.3129-.276.0636-.13.0729-.279.0261-.416-.643-1.874-2.3482-4.473-3.5923-6.371-.3932-.598-.7322-1.115-.9854-1.528 0-.006-.009-.011-.0124-.016.018-.708-.0891-1.413-.3164-2.084-.9187-2.699-1.7639-4.724-2.5764-6.12-.904-1.549-1.7594-2.341-2.6363-2.466-.0143-.001-.0287-.001-.043 0-3.1414-7.856-6.3099-17.442-7.6998-21.649-.4057-1.225-.6724-2.034-.7831-2.333-.9447-2.551-2.4487-4.939-4.7325-7.513-1.9944-2.25-6.4207-4.9146-8.4829-6.0103-.9628-.5118-1.9911-1.1991-2.9867-1.8639-2.3922-1.5984-4.2815-2.8616-5.4443-2.0169-.669.4849-.8148 1.4095-.6373 2.1823-.6577.3554-1.1199 1.3498-1.6069 3.3926-.0445.186-.0882.3794-.1311.5804l-.339-.2778c-.1266-.207-.2599-.4297-.4-.6637-.2543-.4229-.5051-.8358-.7515-1.2374-1.634-2.6378-3.1256-4.6513-4.5358-4.6727h-.0294c-.6667 0-.97859.3499-1.10515.5625-.42827.7086-.03842 1.8706.30625 2.6288l-.035.0056c-.20427.0349-.39768.1161-.56524.2375-.16756.1213-.30477.2795-.40096.4622-.66445 1.2374.7006 2.4578 2.147 3.7436.356.3172.7481.6592 1.1526 1.0122.6272.548 1.2871 1.125 1.8928 1.675.843.767 1.582 1.483 1.9526 1.988-.0293 1.074.0498 1.969.2995 2.443 1.6588 3.134 5.8568 5.124 6.0681 5.223 0 .861.1243 1.65.4746 2.281 1.0532 1.893 6.0512 3.15 9.4616 3.808 1.8441.354 3.2239.532 3.2623.535h.0576c.1397-.001.2735-.056.3743-.152.1007-.096.1607-.227.1678-.366s-.0394-.275-.1298-.381c-.0905-.106-.2181-.173-.3569-.189-2.4996-.26-10.8255-1.892-11.8786-3.786-.66-1.187-.2068-3.544.157-5.438.0972-.506.191-.994.2633-1.446.6984-4.352 1.3707-5.109 1.6272-5.233.0272-.014.0701-.033.1876.033.7357.41.6091 2.876.5063 4.856-.0961 1.867-.1955 3.797.1943 5.174.0174.071.0491.138.0931.197.0439.059.0994.108.163.145s.134.061.207.07c.0731.01.1473.004.2182-.016s.137-.054.1944-.099c.0574-.046.105-.103.1398-.168.0348-.064.0562-.135.0629-.208s-.0015-.147-.0241-.217c-.339-1.208-.2463-3.047-.1548-4.827.1413-2.748.2644-5.121-1.0645-5.862-.1525-.089-.3204-.147-.4949-.174-1.1176-.9919-2.5764-1.8333-3.4544-2.3395l-.0599-.0337c-.6057-.3498-1.2295-.8886-1.9063-1.6457-.1345-.6468-.3684-1.1327-.7447-1.4274-.0976-.0775-.2029-.145-.3142-.2014v-.0157c-.2-.4849-.1333-1.0855.1436-1.2858.5446-.3959 2.6521 1.0124 4.19 2.0405 1.017.675 2.0691 1.3836 3.0815 1.9213 2.3256 1.2374 6.423 3.7924 8.1779 5.7704 2.1911 2.469 3.6285 4.747 4.52 7.168.1051.281.3842 1.125.7707 2.297 1.4622 4.424 4.8861 14.782 8.188 22.862.1582.383.5481 1.254.6633 1.512-2.3809 4.798-6.65 7.117-9.944 7.384-2.3154-11.903-4.2138-20.088-5.8037-25.017-.0218-.068-.057-.131-.1035-.186s-.1035-.1-.1675-.133c-.0641-.032-.1341-.052-.2059-.058s-.144.003-.2124.025c-.068.022-.131.057-.1854.103-.0829.069-.1432.162-.1732.265-.0299.104-.0283.214.0049.317 1.3435 4.162 2.9131 10.693 4.7742 19.869-.9819.684-2.147 2.354-2.6137 4.664-.3853 1.895.9911 6.443 1.8702 8.456.2656.609.826 1.082 1.6645 1.409.2468.093.4993.171.756.232 1.3085 6.503 5.4477 13.103 9.7271 15.456 1.2057.664 2.3899.996 3.5403.996.7593-.001 1.5115-.147 2.2159-.429 8.4208-3.332 12.69-14.163 15.5162-21.597.6079 3.384 1.0012 6.803 1.1774 10.236.1842 3.262-.0666 6.474-.287 9.304-.3085 3.937-.5514 7.053.4362 8.894.1783.307.4107.579.6859.804-.0052.016-.0094.032-.0124.048-1.156 7.451-1.9335 15.679-2.4318 22.685-.5458 7.687-.7548 13.901-.7548 15.993.0064.141.0668.273.1688.37s.2376.151.3786.151c.1411 0 .2767-.054.3787-.151.1019-.097.1624-.229.1688-.37 0-3.943.7447-22.55 3.0985-38.014 4.52 2.729 16.6055 5.339 28.3014 5.339.801 0 1.604-.012 2.4-.038 8.588-.274 20.712-1.633 29.953-6.518 4.025 12.949 5.65 22.168 6.899 38.947.01.137.072.265.173.359.101.093.234.146.372.146h.041c.072-.005.142-.024.206-.057.064-.032.121-.076.168-.13s.083-.117.105-.185c.023-.068.032-.14.026-.211-.479-6.447-1.017-11.784-1.719-16.648-1.15-7.943-2.752-14.617-5.3-22.783 2.589-1.782 2.187-4.487 1.547-8.774-.459-3.074-1.077-7.214-.874-12.704 3.381 6.579 6.633 9.597 10.453 12.068 1.593 1.032 3.783 1.8 5.956 1.8 1.124.015 2.237-.215 3.262-.675 2.703-1.251 4.344-4.049 4.877-8.308 1.183-9.511-.022-15.339-3.242-30.914zm-146.1096-36.4355c.0539-.0289.1162-.0384.1763-.027.8531.0124 2.2747 2.0248 3.3765 3.7638-.9956-.6625-2.0171-1.2373-2.8951-1.5129-.0094-.0278-.0207-.0549-.0339-.081-.5244-.9348-.7865-1.9798-.6238-2.1429zm2.3798 6.72c-.4023-.351-.791-.6918-1.1447-1.0124-1.1447-1.0124-2.14701-1.9674-1.9108-2.4173.0195-.0396.0488-.0734.0852-.0984.0364-.0251.0787-.0404.1227-.0445.9153-.1755 3.451 1.3071 6.3133 3.6931.0421.034.0894.062.1402.082-.1571.883-.2938 1.831-.382 2.738-.8577-.885-2.1007-1.963-3.2239-2.9405zm10.2627 6.8445c-.07.442-.1627.919-.2576 1.414-.1695.88-.3469 1.808-.443 2.7-1.0599-.562-3.955-2.25-5.1698-4.544-.4158-.788-.0971-4.612.643-7.7284.5571-2.3442.9741-2.6569 1.0893-2.6997.0317-.0123.113.018.226.1125.7018.5501.4724 3.7031.339 5.5876-.0655.907-.1231 1.687-.113 2.278.0396 2.437 1.903 3.092 1.9821 3.119.1363.046.2854.036.4146-.027.1291-.064.2279-.175.2747-.311.0472-.136.0387-.285-.0237-.415s-.1736-.23-.3097-.279c-.0497-.017-1.2159-.456-1.243-2.104-.0056-.393.0237-.924.0633-1.51 1.0284.477 2.0941.87 3.1866 1.176-.2751 1.063-.495 2.14-.6588 3.226zm-1.13-7.5824.0599.0348c.7289.4207 1.877 1.0836 2.8442 1.8496-.2892.308-.5514.776-.791 1.428-1.582-.408-3.2239-1.199-3.4307-1.3.0746-1.081.1266-2.0552.113-2.8988.3718.3338.777.629 1.2091.8808zm27.823 36.4774c.0419.039.0837.081.1277.126v.006c-.0101.027-.0203.053-.0316.08-.035-.068-.0667-.143-.0961-.212zm-11.1983 17.651c-.3831-.148-.8769-.412-1.0588-.828-.9199-2.108-2.1075-6.299-1.8001-7.804.3299-1.624 1.0814-2.957 1.7854-3.664.2335 1.163.4716 2.366.7141 3.609-.3016-.02-.6012-.062-.8961-.128-.0713-.02-.1458-.024-.219-.014s-.1436.035-.2069.072c-.0634.038-.1184.089-.1618.148-.0433.06-.0741.127-.0905.199s-.0181.146-.0049.219c.0132.072.041.141.0817.202.0406.062.0933.114.155.155.0616.041.1308.068.2035.082.5653.125 1.1429.187 1.7221.185 4.2183 0 9.387-3.081 11.8719-8.936.7119 1.137 1.6136 3.062 2.712 6.293 1.243 3.655-2.0702 7.712-5.8512 9.376-2.8759 1.263-6.893 1.638-8.9564.834zm70.6754-65.2422c-1.507-1.955-2.444-4.7705-.808-7.3229.81-1.2621 2.185-2.1597 3.774-2.4601.822-.1606 1.668-.153 2.487.0224s1.593.5149 2.276.9979c1.036.7458 1.732 2.1508 1.861 3.7571.135 1.5712-.295 3.1391-1.214 4.4241-.046-.0758-.11-.1392-.187-.1845-3.01-1.748-6.932-.6164-8.065.5827-.048.0479-.086.1044-.113.1665 0 0-.008.0078-.014.0146zm1.282 5.2937-.315-4.7751c.842-.8088 3.955-1.7379 6.424-.4803v2.0124c-1.376.0641-2.516.5624-4.216 1.7919-.756.5433-1.377 1.0236-1.895 1.4488zm7.595 3.919-.4-.045v-.3475c.15.1304.287.2643.4.3925zm-1.495-.1327c-1.759-.1001-3.446.0292-4.381.6873-.381.2677-.834.6052-1.306.982l-.025-.3869c-.005-.0586-.019-.116-.043-.1699.064-.0225.13-.0439.197-.0697.49-.1868 1.328-.5692 2.298-1.0124.724-.3307 1.52-.6929 2.284-1.027.156-.0614.322-.0914.49-.0883.167.003.333.0392.486.1063zm-2.078 23.7062c-1.002.054-2.13-.218-2.26-.93l-.356-5.347c.6-.409 1.218-.892 1.834-1.395.678-.554 1.836-.709 2.859-.71v7.488c-.011.373-.905.834-2.073.894zm7.797 1.629c-.311-.522-.642-1.032-.96-1.527-1.392-2.151-2.825-4.375-3.172-8.347 0-.008 0-.014 0-.021.053.008.102.016.146.025.143.024.288-.009.407-.091.118-.083.198-.208.224-.349s-.004-.287-.086-.405c-.081-.119-.205-.201-.347-.229-.151-.027-3.706-.655-5.495.807-2.712 2.218-3.769 2.46-4.181 2.273-.2-.091-.247-.195-.268-.287-.035-.157-.053-.69.747-1.844.026-.03.049-.063.068-.097.191-.268.424-.563.711-.9.729-.854 2.373-2.26 3.76-3.037 2.268-1.276 6.603-.628 6.646-.621.141.017.284-.021.397-.106.114-.086.19-.212.212-.352.021-.14-.012-.283-.094-.398-.083-.116-.207-.195-.347-.222-.193-.029-4.753-.713-7.353.749-1.51.851-3.248 2.338-4.056 3.284-.079.093-.155.184-.226.276-.267-.842-.226-1.688.113-2.882.226-.808 2.095-2.629 4.255-4.149 1.714-1.205 6.667-.916 8.438-.702.144.018.289-.023.404-.112.114-.089.188-.22.205-.364.017-.143-.023-.288-.113-.401-.089-.114-.221-.188-.365-.205-.073-.009-.583-.069-1.339-.121-.06-.045-.128-.078-.201-.096-.155-.036-3.807-.9-5.63-.592-.904.154-2.016.88-3.298 2.156l.274.283c-.926.72-1.98 1.628-2.73 2.489-.503-1.028-.846-2.162-.473-3.487.226-.807 2.096-2.63 4.255-4.1482 1.687-1.1868 7.563-.054 9.687.4825.139.0313.285.0071.407-.0673s.209-.1932.244-.331c.036-.1379.015-.2839-.056-.407-.072-.1231-.189-.2135-.326-.2521-.317-.0798-1.582-.3903-3.164-.6501-.017-.0565-.042-.1101-.075-.1586-.09-.1283-2.225-3.1306-4.385-2.1879-.77.3374-1.571.7008-2.301 1.0337-.953.4354-1.777.8111-2.234.9866-.685.2609-1.234.2699-1.507.0247-.077-.0764-.131-.1724-.157-.2775s-.023-.2153.009-.3187c.113-.4173.791-1.4623 4.033-3.811 1.921-1.3938 2.896-1.6266 4.11-1.5872 1.356.0461 6.554 5.1957 9.935 9.8391.452.617 1.053 4.414 1.582 7.762.43 2.699.875 5.503 1.37 7.737 1.08 4.889 4.943 10.622 11.807 17.527.041.039.087.072.138.097-.378 5.191-2.981 7.863-5.181 9.204-1.367.831-2.89 1.377-4.476 1.605l-.294-.739c-3.824-9.766-8.816-20.301-9.684-21.761zm10.848 30.752-.36-.468c-1.347-1.747-4.151-5.382-4.214-6.874-.048-1.425.428-2.819 1.338-3.92.362.89.72 1.78 1.068 2.666l.171.431c-.515.007-.873-.042-1.005-.113-.129-.057-.276-.063-.409-.016-.133.048-.242.145-.305.27-.063.126-.075.271-.033.406.041.134.134.247.257.315.275.136.776.225 1.426.225 1.567 0 4.005-.481 6.258-1.855 2.501-1.525 5.474-4.592 5.733-10.595 1.572 1.14 3.444 3.223 4.713 5.201 2.195 3.425-.16 8.4-3.599 11.045-2.938 2.249-7.718 4.033-10.029 3.731-.481-.065-.821-.221-1-.446zm25.495 7.173c-.482 3.865-1.914 6.374-4.251 7.456-2.637 1.22-5.998.355-8.161-1.043-3.757-2.432-6.948-5.421-10.303-12.1v-.007c2.887-.414 6.667-2.152 8.941-3.899 2.825-2.173 4.96-5.81 4.859-9.152 2.165 1.401 6.244 4.254 6.924 6.907.03.117.099.221.195.295s.214.115.335.115c.046 0 .091-.006.136-.017.069-.018.135-.049.193-.092.057-.043.106-.096.143-.158.036-.061.06-.13.071-.2.01-.071.006-.143-.012-.213-.791-3.088-5.034-6.068-8.171-8.048-.163-.685-.441-1.337-.82-1.931-1.413-2.202-5.102-6.628-7.636-6.576-5.763-6.056-9.046-11.119-10-15.435-.487-2.204-.93-4.983-1.356-7.673-.731-4.591-1.208-7.445-1.781-8.234-2.473-3.3969-7.732-9.3126-10.265-10.1799v-1.2317c.038-.0224.074-.0496.105-.081 1.068-1.0619 1.768-2.5029 2.016-4.0586 2.093.8144 4.529 1.5929 7.096 2.4129 7.211 2.3026 15.384 4.9123 18.307 9.1891 4.068 5.9622 6.269 14.0972 8.908 27.0272.468 2.297.904 4.413 1.312 6.374 3.189 15.447 4.384 21.227 3.215 30.553zm-19.952-60.772c-1.86 4.315-3.729 12.117-3.955 15.476-.01.138-.071.267-.173.361-.101.095-.234.147-.373.147h-.037c-.145-.009-.28-.076-.376-.185s-.144-.251-.135-.395c.256-3.79 2.298-11.781 4.044-15.8337.061-.128.169-.2277.301-.278.133-.0502.281-.0472.411.0086.131.0557.235.1598.29.2902.055.1305.057.2771.005.4089zm-102.2297 12.657c-.0807.12-.2058.203-.3478.231-.1421.028-.2897 0-.4104-.08-.0294-.019-2.9132-1.912-6.4162-2.223-.0716-.006-.1412-.027-.2049-.06-.0638-.033-.1203-.078-.1664-.133s-.0809-.118-.1024-.187c-.0215-.068-.0293-.14-.0229-.211.0063-.071.0268-.141.0601-.204.0333-.064.0788-.12.1339-.166.0552-.046.1188-.08.1874-.102.0686-.021.1408-.029.2124-.022 3.79.337 6.8004 2.317 6.9269 2.401.1205.081.204.205.2322.347.0281.142-.0013.289-.0819.409zm15.4947 22.584c2.4397-6.583 3.564-12.895 4.555-18.466 1.521-8.542 2.8341-15.92 8.2638-20.9831 2.7798-2.5929 7.6976-4.8235 12.9046-7.1846 7.1598-3.2475 14.5624-6.6041 15.5444-10.7492.8622-3.6401.565-11.7752.452-14.2612-.0203-.4499-.0361-.7199-.0373-.7367-.0065-.144.0437-.2848.14-.3924.0962-.1076.2309-.1735.3753-.1836.1448-.0071.2865.0427.3947.1386.1082.096.1743.2304.1839.3744.0248.4409.6181 10.855-.4373 15.3106-.5537 2.3363-2.7482 4.3724-5.7314 6.2453 6.1608 7.1699 18.4883 5.9404 18.6143 5.928.132-.0138.264.0203.372.096.108.0758.185.1879.216.3157.007.0236.011.0477.015.072.007.0711.001.143-.019.2117-.02.0686-.054.1326-.099.1883s-.1.102-.164.1362c-.063.0343-.132.0558-.203.0634-.838.0803-1.68.1178-2.521.1125-4.133 0-12.3354-.7874-17.1583-6.549-2.8035 1.6457-6.1653 3.1699-9.4773 4.6727-4.8975 2.2205-9.9611 4.5175-12.6109 6.9877-5.163 4.8157-6.4478 12.0267-7.9338 20.3777-.9989 5.616-2.1323 11.979-4.6059 18.654-.0386.105-.1085.195-.2002.259-.0918.063-.2009.098-.3128.098-.1042 0-.2062-.03-.2938-.086-.1062-.066-.1864-.166-.2275-.284s-.0406-.246.0015-.364zm77.342-73.5406c.082-.0191 8.129-2.0045 13.012-2.504.073-.0106.148-.0063.219.0125.072.0187.138.0517.197.0969.058.0452.107.1016.142.1659.036.0643.059.1352.066.2083.008.0732.001.1471-.021.2174-.022.0702-.058.1354-.106.1915-.047.0561-.106.102-.172.135s-.138.0524-.212.0569c-4.806.4905-12.779 2.4579-12.858 2.4747-.044.0102-.089.0155-.134.0158-.133-.0007-.261-.0498-.361-.138-.099-.0882-.163-.2095-.179-.3412-.017-.1317.016-.2648.091-.3743.075-.1096.188-.188.317-.2208zm11.631 13.9372c.066.0295.125.0716.174.1239s.088.1137.113.1808c.026.067.038.1384.035.21-.002.0717-.019.1421-.048.2074-.03.0653-.072.1242-.125.1732-.052.049-.114.0872-.181.1125-.068.0253-.139.0371-.211.0348s-.143-.0187-.209-.0483c-7.086-3.1687-12.284-5.5782-12.336-5.6018-.068-.0287-.129-.0706-.18-.1233-.051-.0526-.09-.115-.117-.1833-.026-.0682-.038-.1411-.036-.2142.003-.073.02-.1449.051-.2112s.075-.1257.13-.1747c.054-.049.118-.0866.188-.1106.069-.0239.142-.0337.216-.0288.073.0048.145.0244.21.0573.056.0248 5.248 2.4309 12.326 5.5963zm-.366-7.0294c-.286-.0428-.574-.0695-.863-.0798-.116.0081-.229.0308-.339.0675-.198.0618-.404.0966-.611.1035-.153.001-.304-.0265-.446-.081-.257-.1085-.501-.2467-.726-.4117-.16-.1202-.333-.2217-.516-.3026-.068.0153-.135.0367-.2.0641-.213.0821-.536.2058-.915.0799-.217-.0824-.403-.2293-.533-.4207-.099.054-.217.1282-.294.1766-.236.1496-.441.2789-.651.3194-.824.1654-1.064-.5275-1.144-.7548v-.0123c-.152.0911-.359.2474-.498.3532-.462.3509-.897.6805-1.356.6232-.737-.0934-.743-.8606-.702-1.3623-.076.1013-.152.2138-.226.3296-.18.3039-.409.5766-.678.8077-.056.0439-.121.0762-.191.0951-.069.0189-.141.024-.213.0151-.071-.0089-.14-.0318-.202-.0672-.063-.0354-.117-.0827-.161-.1392s-.077-.1211-.096-.1901-.024-.141-.015-.212.032-.1395.067-.2016c.036-.0622.083-.1168.14-.1607.173-.1633.323-.3499.444-.5545.308-.45.691-1.0236 1.392-1.162.111-.0252.227-.0235.337.0048.11.0284.212.0827.296.1583.32.2913.274.7345.226 1.2047 0 .0495-.012.1125-.018.1721.113-.0764.226-.1619.308-.2249.544-.4117 1.221-.9258 1.8-.4725.191.1645.329.3823.395.6254l.179-.1124c.417-.2633.934-.5917 1.392-.2869.129.0927.242.2068.332.3375l.059.0754.151-.0563c.226-.0889.58-.225.991-.063.262.1107.51.2511.739.4185.156.1171.325.2163.503.2958.065.0248.226-.0169.371-.0574.209-.0677.426-.1055.646-.1124.332.0105.662.0405.99.0899.433.0563.844.1125 1.232.063.071-.0085.143-.0029.213.0165.069.0193.134.052.19.0963.057.0442.104.0991.139.1615s.058.1311.066.2021c.009.0711.003.1431-.016.212-.02.0689-.053.1333-.097.1896-.044.0562-.1.1032-.162.1382-.063.0351-.132.0575-.203.066-.548.0641-1.046.0022-1.526-.0642z" fill="#221b0b"></path></svg>