<svg xmlns="http://www.w3.org/2000/svg" xmlns:xlink="http://www.w3.org/1999/xlink" fill="none" height="206" viewBox="0 0 293 206" width="293"><clipPath id="a"><path d="m0 0h293v206h-293z"></path></clipPath><path d="m5.67548 137.171c15.49782 39.399 61.93372 58.014 103.71752 41.578 41.784-16.436 63.093-61.699 47.595-101.0975-15.498-39.3988-61.9337-58.014-103.7175-41.578-41.7838 16.4359-63.09281 61.6989-47.59502 101.0975z" fill="#f6eeff"></path><g clip-path="url(#a)" fill="#221b0b"><path d="m155.405 47.2329c-.093.0003-.183-.0276-.26-.0798-.077-.0523-.136-.1265-.169-.213-.185-.4684-.374-.9317-.564-1.3963-.344-.8471-.702-1.7216-1.026-2.626-.354-.989-3.363-9.8.121-14.4443.073-.0982.183-.1631.304-.1806.122-.0174.245.0141.343.0876s.163.183.181.3044c.017.1214-.014.2448-.088.343-3.252 4.3372-.13 13.2081.009 13.5841.318.8862.67 1.7516 1.013 2.5883.191.4685.381.9356.567 1.408.022.0565.033.1168.032.1775s-.014.1207-.038.1764-.059.1061-.103.1483c-.043.0422-.095.0754-.151.0977-.055.0183-.113.0267-.171.0247z"></path><path d="m174.619 73.2248c-.344.002-.687-.0263-1.025-.0845-3.059-.5414-6.024-2.6781-7.519-3.9039-4.892-4.0119-6.988-7.7232-7.883-10.1292-.94-2.5245-1.252-4.3307-1.554-6.0784-.076-.4398-.152-.8744-.235-1.313-.023-.1208.002-.2458.072-.3476.069-.1017.175-.1719.296-.195s.246.0027.348.0717c.101.0691.171.1758.195.2966.085.4437.162.8835.239 1.3299.294 1.706.6 3.4692 1.509 5.913.856 2.2994 2.87 5.8558 7.603 9.7363 1.432 1.1711 4.242 3.2038 7.094 3.7087 3.628.6428 11.717-3.3626 16.709-9.4903.038-.047.086-.086.139-.1148.053-.0287.112-.0466.172-.0527.061-.0061.122-.0003.18.0172.058.0174.112.0462.159.0845.047.0384.086.0856.115.1391.028.0534.046.112.052.1723.006.0604.001.1213-.017.1794-.017.0581-.046.1122-.084.1592-4.469 5.4772-11.995 9.9015-16.565 9.9015z"></path><path d="m168.427 62.9044c-.672.0123-1.342-.0943-1.977-.3149-.057-.0211-.109-.0532-.154-.0945-.044-.0413-.08-.0909-.105-.1461-.052-.1114-.056-.2385-.014-.3535.043-.1149.129-.2082.241-.2593.111-.0511.238-.0559.353-.0133 2.342.868 7.251-.6858 8.892-2.8199.074-.0971.185-.1606.306-.1763.122-.0157.245.0175.342.0924s.161.1853.176.307c.016.1216-.017.2445-.092.3417-1.397 1.8166-5.047 3.4367-7.968 3.4367z"></path><path d="m203.54 67.1088c-.092-.0001-.182-.0275-.258-.0787s-.136-.1239-.17-.2089c-2.665-6.5156-4.917-15.8757-4.944-15.9707-.017-.0599-.022-.1225-.014-.1842s.029-.1211.06-.1748c.032-.0536.073-.1003.123-.1373s.107-.0635.168-.078c.06-.0144.123-.0165.184-.0062.062.0104.12.0331.173.0667.052.0335.097.0773.132.1287s.059.1094.071.1704c.024.0924 2.26 9.3862 4.897 15.8354.029.0702.039.1463.031.2216s-.034.1475-.076.2104-.099.1145-.166.1503c-.066.0358-.141.0548-.217.0553z"></path><path d="m166.453 57.2425c-.087.0003-.173-.0241-.246-.0703-1.45-.9109-2.131-1.6045-2.281-2.3176-.141-.6741.221-1.2076.571-1.7229.39-.57.789-1.1607.734-2.0899-.13-2.3501-1.668-4.4569-1.684-4.4777-.072-.0987-.103-.2223-.085-.3436.019-.1213.084-.2303.183-.3031.099-.0729.222-.1035.343-.0852.122.0183.231.084.304.1828.07.0949 1.71 2.3423 1.863 4.9735.071 1.2427-.486 2.0638-.893 2.6624-.315.462-.489.7378-.431 1.0137.088.4203.716 1.0007 1.867 1.7242.086.0533.151.1328.187.2265.036.0938.04.1966.012.2931-.027.0965-.086.1813-.166.2415-.08.0603-.178.0928-.278.0926z"></path><path d="m153.744 41.3055c-.105-.0006-.206-.0365-.288-.1019-.081-.0654-.138-.1565-.161-.2584-.023-.102-.012-.2087.034-.303.045-.0943.12-.1705.214-.2163 1.153-.5505 2.397-1.0411 4.896-.9786.119.0076.23.0604.31.1475.081.0871.125.2019.124.3207-.002.1187-.049.2323-.132.3173-.082.0851-.195.1351-.313.1397h-.011c-2.297-.056-3.383.3696-4.475.8875-.062.0301-.13.0456-.198.0455z"></path><path d="m169.006 37.3535c-.096.0002-.189-.0293-.267-.0843-.078-.0551-.137-.133-.169-.2231s-.036-.1879-.01-.2799.08-.1737.154-.2338c.123-.0989 3.034-2.4113 7.143-1.3443.059.0152.114.0419.163.0784.048.0366.089.0823.12.1346.03.0524.051.1102.059.1704.009.0601.005.1213-.01.1801s-.042.114-.079.1625c-.036.0485-.082.0893-.134.1201s-.11.051-.17.0595c-.061.0084-.122.0049-.18-.0103-1.077-.2788-2.201-.3184-3.294-.116-1.094.2023-2.129.6417-3.035 1.2872-.083.0652-.186.1001-.291.0989z"></path><path d="m194.792 49.6117c-.104-.0006-.205-.036-.286-.1006-.081-.0645-.138-.1545-.162-.2555s-.014-.2071.03-.3013c.043-.0942.117-.1711.209-.2184 2.893-1.46 4.256-3.5343 4.294-6.5259.025-2.1511-.882-3.9416-2.365-4.673-1.432-.7092-3.205-.3331-4.973 1.0567-.048.0375-.102.0652-.161.0816-.058.0164-.12.0211-.18.0138-.06-.0072-.118-.0263-.171-.056-.053-.0298-.1-.0697-.137-.1175-.038-.0477-.065-.1024-.082-.1609-.016-.0585-.021-.1196-.014-.1799.008-.0603.027-.1186.056-.1715.03-.053.07-.0995.118-.137 2.063-1.6227 4.177-2.0352 5.952-1.1595 1.806.8914 2.911 3.0034 2.881 5.5149-.038 3.3287-1.607 5.7257-4.797 7.3406-.066.0327-.139.0496-.212.0494z"></path><path d="m194.011 44.0252c-.044.0003-.088-.0058-.13-.0182-.118-.0347-.217-.1146-.275-.2222-.059-.1075-.073-.234-.039-.3517.248-.7771.643-1.4993 1.163-2.1276.04-.046.088-.0837.143-.111.054-.0273.113-.0436.173-.0481.061-.0045.122.003.179.0221.058.019.111.0492.157.0889.046.0396.084.0879.111.1421.028.0543.044.1133.048.1739.005.0605-.003.1213-.022.179-.019.0576-.049.1109-.089.1569-.433.5288-.764 1.1339-.975 1.7841-.029.0958-.087.18-.167.2398s-.177.0921-.277.092z"></path><path d="m179.395 81.8303c-.076-.0002-.15-.019-.217-.0547-.067-.0358-.124-.0874-.166-.1503-.043-.063-.069-.1354-.077-.2108-.007-.0754.004-.1516.032-.2219.384-.9484.544-1.9726.467-2.9929-.104-1.6826-1.475-5.5838-1.49-5.6229-.02-.0572-.029-.1179-.025-.1785.003-.0607.018-.1201.044-.1749s.063-.1039.108-.1445.098-.072.155-.0922c.057-.0203.118-.0291.179-.0259.06.0032.12.0184.174.0445.055.0262.104.0629.145.108.041.0452.072.0979.092.1551.059.1653 1.431 4.0626 1.541 5.874.086 1.1604-.097 2.3251-.535 3.4029-.035.0845-.094.1567-.17.2074-.076.0508-.166.0778-.257.0776z"></path><path d="m183.989 39.8363c-8.595 0-14.795-9.1428-17.675-13.3863-1.951-2.8811-4.033-4.2787-5.854-3.9351-1.301.2446-2.376 1.4314-2.732 3.0372-.028.1196-.101.2235-.205.2889-.103.0654-.229.0869-.348.0598-.12-.0271-.224-.1006-.289-.2043-.066-.1037-.087-.2291-.06-.3487.445-1.9598 1.807-3.4289 3.468-3.7412 1.279-.2408 3.859 0 6.792 4.3242 5.334 7.8584 11.993 15.4593 20.966 12.2529.057-.0204.118-.0294.179-.0264.06.003.12.018.175.0439.054.026.104.0625.144.1075.041.045.073.0976.093.1548.02.0571.029.1178.026.1784s-.018.1201-.044.1749c-.026.0549-.062.1041-.107.1448-.045.0408-.098.0722-.155.0927-1.402.5115-2.882.7762-4.374.782z"></path><path clip-rule="evenodd" d="m158.144 48.9233c-.401-1.0085-.03-2.1029.826-2.4439.856-.3409 1.876.203 2.278 1.2128s.03 2.1029-.827 2.4439c-.858.3409-1.876-.2043-2.277-1.2128z" fill-rule="evenodd"></path><path clip-rule="evenodd" d="m171.794 45.238c-.333-1.0696.202-2.1874 1.195-2.4971.992-.3097 2.068.3045 2.403 1.3728.334 1.0684-.202 2.1875-1.195 2.4972-.992.3097-2.068-.3045-2.403-1.3729z" fill-rule="evenodd"></path><path d="m155.262 22.3588c-.117-.0003-.229-.0446-.314-.1239-.085-.0794-.138-.188-.147-.3042-.147-2.0287.445-3.8974 1.585-4.9996.088-.0852.207-.132.329-.1299.123.0021.24.0528.325.141.085.0881.132.2066.13.3292s-.053.2394-.141.3247c-.945.9109-1.431 2.5089-1.301 4.2669.004.0606-.003.1215-.022.1791-.02.0577-.05.111-.09.157-.039.0459-.088.0835-.142.1107-.055.0272-.114.0434-.174.0477z"></path><path d="m236.426 83.2136c-.067.0004-.135-.0143-.196-.043-12.087-5.6645-14.336-17.3826-17.184-32.2173-.634-3.304-1.29-6.7199-2.092-10.2633-4.416-19.5011-13.509-30.5777-18.193-34.04304-6.838-5.07503-11.839-5.60595-16.003-5.711359-12.449-.31231-20.339 5.855809-20.417 5.923469-.096.07662-.218.11205-.34.09851-.122-.01355-.233-.07496-.31-.17073-.076-.09577-.112-.21806-.098-.33995.013-.1219.075-.23342.17-.31004.081-.06377 8.222-6.441387 21.02-6.1251739 4.293.1080069 9.473.6623569 16.523 5.8922439 4.783 3.54471 14.071 14.81777 18.547 34.58177.805 3.559 1.462 6.9827 2.098 10.2932 2.801 14.5758 5.011 26.0896 16.671 31.555.095.0444.173.1201.219.2146.047.0945.06.2021.037.305-.023.1028-.08.1948-.163.2605-.082.0657-.185.1013-.29.1009z"></path><path d="m167.713 87.4571c-3.568 0-7.111-1.7503-9.831-8.0173-.049-.1125-.051-.2398-.006-.3539s.134-.2056.246-.2544c.113-.0489.24-.051.354-.006s.205.1335.254.246c3.579 8.2463 8.467 8.124 13.219 6.7667.118-.0336.244-.0191.351.0405.107.0595.186.1592.22.2771.034.1178.019.2442-.04.3514-.06.1071-.16.1862-.277.2198-1.461.4216-2.976.7301-4.49.7301z"></path><path d="m165.503 90.0922h-.029c-8.642-.5283-15.576-8.9867-18.105-22.0725-2.461-12.7656-2.639-30.3799-.423-41.882 2.163-11.2275 7.77-16.64476 12.062-16.92714.122-.00681.242.03464.334.11544s.149.19449.158.31659c.004.06059-.004.12139-.024.17891-.019.05753-.05.11065-.09.15634-.04.04566-.088.08306-.143.10996-.054.0268-.113.0427-.174.0467-3.297.216-9.005 4.7028-11.215 16.1776-2.196 11.4019-2.018 28.8678.423 41.532 2.441 12.6641 9.05 20.8206 17.249 21.3268.123.0036.239.0558.323.145s.129.2081.125.3306c-.003.1226-.056.2386-.145.3227s-.208.1293-.33.1256z"></path><path d="m128.887 147.406c-.098 0-.194-.031-.273-.088-.079-.058-.138-.139-.168-.232-.03-.094-.03-.194.001-.287s.091-.174.17-.231c.602-.431 1.204-.844 1.81-1.262 3.383-2.322 6.876-4.723 10.964-10.824 4.758-7.101 8.513-16.328 11.53-23.74 2.316-5.689 4.145-10.182 5.786-12.2787 1.681-2.1497 4.423-4.1732 7.075-6.129 1.127-.8303 2.29-1.6917 3.36-2.548.096-.0768.218-.1124.34-.0991s.234.0745.31.1701c.077.0956.113.2177.099.3396-.013.1219-.074.2336-.17.3104-1.085.8705-2.257 1.7346-3.39 2.5713-2.602 1.9194-5.293 3.9039-6.896 5.9534-1.561 1.996-3.459 6.659-5.658 12.059-3.033 7.451-6.808 16.726-11.617 23.906-4.187 6.246-7.757 8.7-11.208 11.071-.602.414-1.2.824-1.796 1.252-.078.057-.173.087-.269.086z"></path><path d="m156.347 156.998c-.061 0-.121-.012-.177-.035s-.107-.057-.15-.1-.077-.094-.101-.15c-.023-.056-.035-.116-.035-.177 0-3.878-.895-7.361-1.762-10.729-.794-3.093-1.546-6.015-1.39-8.719.229-3.941.946-7.148 1.704-10.54.814-3.644 1.656-7.417 1.979-12.476.003-.06.019-.12.045-.175.027-.055.064-.103.11-.144.046-.04.099-.07.157-.089.058-.02.119-.027.18-.022.06.003.12.019.174.046.055.027.103.064.143.109.04.046.071.099.091.156.019.058.028.119.024.179-.328 5.133-1.179 8.938-2 12.623-.751 3.357-1.46 6.527-1.684 10.394-.148 2.563.586 5.416 1.363 8.437.839 3.265 1.791 6.966 1.791 10.961-.003.12-.052.235-.139.319-.086.085-.202.132-.323.132z"></path><path d="m224.748 169.248h-.019c-.122-.005-.238-.058-.321-.149-.083-.09-.127-.21-.122-.332.29-7.306-.901-16.469-1.952-24.553-.871-6.716-1.691-13.06-1.57-17.448.005-.122.058-.237.147-.321s.207-.13.329-.128c.123.004.239.056.323.146.084.089.129.208.126.331-.13 4.314.695 10.622 1.561 17.307 1.054 8.12 2.25 17.323 1.952 24.709-.006.117-.056.227-.141.309-.084.081-.196.127-.313.129z"></path><path d="m218.916 117.175c-.025.002-.049.002-.073 0-.06-.01-.118-.031-.17-.063-.051-.032-.096-.073-.132-.123-.036-.049-.061-.104-.075-.164-.014-.059-.017-.12-.007-.18 1.9-11.929 7.884-21.509 16.419-26.2808.053-.0297.111-.0486.172-.0557.06-.0071.121-.0023.179.0142.059.0165.113.0443.161.0819s.088.0842.117.1372c.03.053.049.1113.056.1716s.002.1214-.014.1798c-.017.0584-.045.113-.082.1607-.038.0476-.084.0874-.137.1171-8.283 4.6339-14.1 13.969-15.958 25.615-.017.108-.073.207-.156.278-.084.072-.19.111-.3.111z"></path><path d="m230.066 198.29c-19.819 0-52.415-5.179-54.507-6.429-.947-.568-1.616-3.571-1.798-4.478-.024-.121.001-.246.069-.349.068-.102.175-.173.295-.197.121-.025.246 0 .349.069.102.068.174.174.198.295.337 1.673.966 3.627 1.367 3.866 1.733 1.041 37.095 6.788 56.631 6.266 11.747-.31 18.995-1.512 21.278-6.737 3.15-7.208 3.643-25.401 1.454-54.073-1.329-17.437-2.854-32.769-8.067-43.7957-3.825-8.0928-17.213-12.5106-26.951-15.1301-2.97-.799-5.41-1.7047-7.253-2.6937-.108-.058-.189-.1565-.224-.2739-.036-.1174-.023-.244.035-.352s.156-.1886.274-.224c.117-.0354.244-.0227.352.0353 1.781.9551 4.155 1.8348 7.055 2.6156 9.916 2.6663 23.56 7.1883 27.549 15.6272 5.279 11.1703 6.814 26.5903 8.151 44.1213 2.196 28.824 1.682 47.165-1.529 54.514-2.48 5.675-9.982 6.971-22.101 7.287-.851.025-1.726.037-2.627.036z"></path><path d="m201.126 97.745c-.101 0-.199-.0329-.279-.0937s-.138-.1462-.166-.2432c-.027-.097-.022-.2002.015-.2939.037-.0938.103-.1729.189-.2254 3.868-2.3697 10.135-3.615 11.794-3.9143-.371-9.3367-1.225-19.315-2.038-20.1114-2.212-1.7242-3.314-3.6059-3.97-4.7302-.154-.2924-.333-.571-.535-.8328-.533-.5648-2.283-1.1855-2.776-1.1855-.063.0033-.126-.0062-.185-.0279-.059-.0218-.113-.0553-.158-.0986-.046-.0433-.082-.0954-.107-.1532s-.038-.12-.038-.1829.013-.1252.038-.183c.025-.0577.061-.1099.107-.1532.045-.0432.099-.0768.158-.0985.059-.0218.122-.0313.185-.0279.754 0 2.744.73 3.449 1.4756.202.2148.39.5453.661 1.002.622 1.0671 1.663 2.8512 3.743 4.4713 1.523 1.1841 2.227 16.5263 2.407 21.211.004.113-.034.2235-.106.3108-.071.0872-.173.1451-.284.1629-.077.013-7.627 1.2648-11.865 3.8596-.072.0424-.155.0641-.239.0624z"></path><path d="m244.239 177.068c-.077.001-.154-.019-.222-.056-.069-.037-.126-.091-.168-.156-2.427-3.774-7.788-7.95-14.914-7.32-7.936.701-14.694 1.171-23.404.36-11.58-1.078-21.936-3.205-25.835-4.006-.53-.108-.929-.19-1.179-.238-1.868-.357-2.684.607-2.719.65-.078.095-.19.155-.311.168-.122.013-.244-.022-.34-.099-.048-.037-.088-.084-.117-.137-.03-.053-.049-.112-.056-.172-.007-.061-.002-.122.015-.181.016-.058.045-.113.083-.16.047-.06 1.171-1.453 3.615-.983.261.048.651.13 1.193.241 3.884.798 14.204 2.917 25.734 3.992 8.634.804 15.352.335 23.238-.36 7.53-.667 13.205 3.753 15.771 7.739.045.069.071.15.074.234.003.083-.016.165-.056.239-.04.073-.099.134-.171.176s-.154.064-.237.064z"></path><path d="m184.353 166.246c-.12 0-.235-.047-.322-.13-.086-.084-.136-.198-.14-.319-.65-23.591 1.36-41.724 6.722-60.633 4.458-15.729 10.739-31.1102 14.085-38.8789.023-.0562.058-.1072.101-.15.044-.0427.095-.0765.152-.0993.057-.0227.117-.0341.178-.0333.061.0007.121.0135.177.0377.056.0241.107.0591.149.1029.043.0438.076.0956.098.1524.023.0568.033.1174.032.1784-.001.0609-.014.1211-.039.1769-3.337 7.7478-9.6 23.0874-14.051 38.7642-5.334 18.814-7.333 36.865-6.686 60.356.001.061-.009.121-.03.178-.022.057-.055.109-.096.153-.042.044-.092.079-.147.104-.056.025-.115.039-.176.04z"></path><path d="m166.294 166.033c-.119 0-.234-.047-.319-.129-.086-.082-.137-.195-.142-.314-.012-.247-1.093-24.966.334-40.562 1.381-15.06 6.418-33.6476 10.491-42.9166.338-.7717 2.511-4.4166 2.602-4.5715.063-.1052.165-.1812.283-.2113.119-.03.245-.0115.35.0513.106.0628.182.1648.212.2837.03.1188.011.2447-.052.35-.62 1.041-2.288 3.8726-2.551 4.4699-4.042 9.2014-9.044 27.6625-10.408 42.6285-1.424 15.533-.344 40.191-.332 40.438.003.061-.007.121-.028.178-.02.057-.052.11-.093.155-.041.044-.091.08-.146.106s-.115.04-.175.043z"></path><path d="m139.254 165.803h-.048c-.168-.019-16.861-1.794-23.775-3.738-1.749-.492-2.791-1.503-2.784-2.704.006-1.201 1.04-2.247 2.639-2.681.95-.26 3.452-.139 6.619.011 1.992.095 4.249.202 6.406.226 1.572.015 4.64-.056 7.884-.13 3.904-.092 7.951-.187 10.071-.146.06.002.12.015.176.039.055.024.105.059.147.103.043.044.076.096.098.152.022.057.032.117.031.178-.005.121-.057.236-.145.32-.087.085-.204.132-.326.134-2.103-.042-6.133.053-10.029.144-3.253.077-6.325.154-7.917.13-2.174-.023-4.441-.13-6.44-.226-2.963-.141-5.523-.26-6.331-.043-1.171.317-1.952 1.041-1.96 1.793s.781 1.431 2.112 1.81c6.838 1.923 23.454 3.689 23.62 3.708.118.012.226.069.303.159.076.09.116.206.11.324-.007.118-.058.229-.143.311-.086.081-.2.127-.318.127z"></path><path d="m173.05 167.3h-.006c-.198 0-4.908-.084-9.067-2.032-3.123-1.463-5.595-3.329-7.971-5.134-3.593-2.721-6.695-5.075-11.022-5.167-1.539-.03-14.811 1.051-14.945 1.063-.122.01-.243-.029-.337-.108-.093-.08-.151-.193-.161-.315s.029-.243.108-.337c.079-.093.192-.151.314-.161.549-.045 13.477-1.116 15.042-1.066 4.625.103 7.993 2.653 11.56 5.355 2.341 1.775 4.768 3.611 7.806 5.033 3.975 1.861 8.64 1.944 8.687 1.944.118.006.23.058.311.144.082.086.128.2.128.319 0 .118-.046.232-.128.319-.081.086-.193.137-.311.143z"></path><path d="m138.971 173.444c-.037-.001-.074-.006-.111-.015-.122-.03-12.417-3.051-19.06-6.198-4.157-1.97-5.985-3.325-6.333-4.677-.069-.275-.073-.562-.012-.839.06-.276.183-.536.36-.757.073-.099.182-.165.303-.184.121-.018.244.012.343.084.099.073.165.181.184.303.019.121-.012.244-.084.343-.095.113-.163.246-.197.389-.035.143-.035.292-.001.435.336 1.327 3.489 2.957 5.833 4.067 6.557 3.107 18.762 6.107 18.884 6.136.108.029.202.096.265.188.062.093.09.205.076.315-.013.111-.066.214-.149.289-.082.074-.189.117-.301.119z"></path><path d="m138.639 180.14c-.053 0-.105-.008-.155-.026-.463-.165-11.385-4.076-15.571-6.847-2.456-1.626-3.57-5.319-3.697-6.479-.007-.061-.002-.122.015-.18s.046-.113.084-.16.085-.087.138-.116.111-.047.172-.054c.06-.006.121-.001.179.016.059.017.113.045.16.083.048.038.087.085.116.138.029.054.048.112.054.172.111 1.004 1.135 4.383 3.289 5.809 4.093 2.71 15.259 6.706 15.372 6.746.103.036.19.108.246.202.055.095.075.206.056.313-.018.108-.075.206-.159.276s-.19.108-.299.107z"></path><path d="m173.442 185.576c-.028-.001-.055-.003-.082-.007-7.533-1.344-11.533-1.149-15.765-.943-2.968.144-6.037.294-10.408-.13-8.755-.854-14.154-1.774-16.047-2.733-2.904-1.474-6.783-5.684-7.156-7.766-.011-.06-.01-.121.003-.181.013-.059.038-.115.072-.165.035-.05.079-.093.13-.126.051-.032.108-.055.168-.066.06-.01.121-.009.181.004.059.013.115.037.165.072.05.034.093.079.126.13.032.051.055.108.066.168.298 1.655 3.86 5.681 6.665 7.105 1.232.626 4.958 1.59 15.719 2.639 4.308.42 7.343.273 10.278.13 4.099-.199 8.335-.405 15.972.956.114.02.217.082.288.174.071.091.105.207.095.322-.01.116-.064.224-.15.302-.085.078-.198.121-.314.12z"></path><path d="m172.963 186.769c-.088 0-.173-.025-.247-.072s-.133-.114-.17-.193-.052-.167-.041-.254c.011-.086.046-.168.101-.236 6.681-8.167 1.284-17.958-.054-19.543-.079-.093-.118-.215-.107-.337s.069-.235.163-.314.215-.117.338-.106c.122.01.235.069.313.163 1.714 2.032 7.111 12.11.064 20.724-.044.053-.099.096-.161.125s-.13.044-.199.043z"></path><path d="m179.52 188.556c-.545 0-6.85-1.114-7.416-1.692-.208-.215-.78-1.158-1.017-1.554-.031-.052-.052-.11-.061-.17-.008-.06-.005-.121.01-.18.014-.059.041-.114.077-.163.036-.048.082-.09.134-.121s.11-.051.17-.06.121-.006.18.009.114.041.163.078c.048.036.089.081.12.133.324.542.73 1.186.866 1.356.629.319 5.887 1.438 6.774 1.438.119.007.23.058.312.144.081.086.127.2.127.319s-.046.233-.127.319c-.082.086-.193.137-.312.144z"></path><path d="m171.904 167.221c-.087 0-.173-.025-.247-.073-.102-.065-.175-.167-.202-.285s-.006-.242.058-.345c.203-.283.465-.52.769-.693.303-.173.639-.279.987-.31.756-.089 4.374.488 5.092.604.113.028.21.098.273.195.064.097.089.214.07.328s-.079.218-.17.289c-.091.072-.205.107-.321.099-1.615-.261-4.361-.658-4.837-.599-.211.016-.416.075-.602.175-.187.099-.35.237-.481.403-.042.065-.099.118-.167.155s-.144.057-.222.057z"></path><path d="m176.015 191.794c-.1.001-.198-.032-.278-.092s-.138-.145-.166-.241-.024-.199.012-.292c.035-.094.1-.173.185-.227 4.522-2.863 7.003-7.534 6.635-12.509-.464-6.271-4.905-12.39-5.094-12.647-.035-.049-.061-.105-.076-.164-.014-.059-.017-.12-.008-.18.01-.06.031-.118.062-.17.032-.051.073-.097.122-.133.049-.035.104-.061.163-.076.059-.014.121-.017.181-.008.06.01.117.031.169.062.052.032.097.073.133.122.195.26 4.786 6.592 5.27 13.126.391 5.321-2.246 10.314-7.063 13.358-.074.047-.16.071-.247.071z"></path><path d="m124.614 175.314h-.034l-30.1465-2.183c-.0675-.004-.1332-.024-.1923-.056-.0591-.033-.1103-.079-.1499-.134l-46.7531-64.905c-.0478-.067-.0769-.146-.0843-.228-.0075-.082.007-.164.042-.239.035-.074.0892-.138.157-.184.0678-.047.1468-.075.2288-.081.1054-.006 10.7349-.765 24.3946-3.194 19.8344-3.529 27.9009-8.0501 27.9807-8.0957.054-.0312.115-.0509.178-.0578.062-.007.126-.0011.186.0173s.116.0489.164.0896c.048.0408.088.0909.116.1474l30.145 60.8082c.027.054.043.113.047.174.004.06-.004.121-.023.179-.019.057-.05.11-.09.156s-.088.083-.142.11c-.055.027-.114.043-.174.047-.061.005-.122-.003-.179-.023-.058-.019-.111-.049-.157-.089-.045-.04-.083-.089-.11-.143l-29.932-60.3799c-1.9094.9825-10.1581 4.8239-27.8419 7.9709-11.5285 2.052-20.9104 2.916-23.6686 3.143l46.1455 64.062 29.933 2.166c.119.009.23.064.31.153.079.089.121.206.117.325s-.055.232-.141.315-.2.13-.32.13z"></path><path d="m82.386 177.951c-1.3508-.007-2.6921-.227-3.9747-.65-3.1459-1.002-5.7584-2.555-8.2838-4.054-.8027-.476-1.6315-.969-2.4589-1.431-1.8358-1.027-4.5719-2.473-7.1766-3.548-.1939-.078-.428-.17-.6922-.273-2.4928-.971-7.6761-2.993-7.1037-6.259.1301-.764.458-1.301.9589-1.608 1.0409-.63 2.5917-.131 4.5537.488.9107.291 1.9515.622 3.0041.851 5.2042 1.13 9.7071 2.342 11.8629 3.039.1166.038.2135.121.2692.23.0558.109.0659.236.0281.353-.0378.116-.1204.213-.2295.269-.1092.056-.2361.066-.3527.028-2.1337-.691-6.6028-1.892-11.7745-3.015-1.0994-.239-2.1558-.576-3.0887-.874-1.6692-.533-3.1108-.992-3.7925-.578-.2602.161-.4398.481-.5204.978-.445 2.522 4.2648 4.356 6.5286 5.237.2706.105.51.199.7078.279 2.6476 1.09 5.4188 2.556 7.2767 3.596.8379.468 1.6719.964 2.4798 1.444 2.4811 1.473 5.0468 2.993 8.0925 3.968 3.5441 1.13 5.8834.497 8.8471-.305 2.6737-.723 5.7051-1.544 10.3017-1.191.122.009.2353.067.315.16s.1194.213.1104.335c-.0039.061-.0199.121-.0472.175-.0273.055-.0652.103-.1115.143s-.1001.07-.1582.088c-.0581.019-.1193.025-.1801.02-4.4352-.34-7.386.459-9.9894 1.163-1.8279.491-3.5076.942-5.4019.942z"></path><path d="m87.6676 163.795h-.0157c-1.9738-.083-3.9369-.335-5.8677-.754-4.3858-.95-9.5262-2.53-17.4795-5.114-3.6013-1.171-9.7084-2.56-11.807-2.125-2.0309.422-5.3733 2.057-8.514 4.164-.1018.069-.2269.095-.3476.072-.1208-.023-.2274-.094-.2964-.195-.0691-.102-.0948-.227-.0716-.348s.0934-.228.1952-.297c2.5721-1.728 6.245-3.773 8.8471-4.304s9.5171 1.252 12.2805 2.15c7.9247 2.575 13.043 4.148 17.3898 5.089 1.8789.408 3.7894.654 5.7103.735.0606.001.1205.014.176.039.0556.024.1059.059.1479.103s.0751.095.0972.152c.0221.056.0328.116.0316.177-.0011.061-.0143.121-.0386.176-.0243.056-.0593.106-.1031.148-.0437.042-.0953.075-.1518.097s-.1168.033-.1774.032z"></path><path d="m46.0093 164.706c-.103-.001-.203-.035-.2842-.098-.0811-.064-.1389-.152-.1641-.252s-.0165-.205.0249-.3c.0414-.094.113-.172.2035-.221.2316-.13.5126-.28.8196-.449.9667-.536 2.1689-1.202 2.9053-1.487l.2081-.084c.6714-.274 1.9191-.78 3.3333-.52.1208.023.2274.093.2965.195.069.102.0948.227.0717.348-.0231.12-.0933.227-.195.296-.1018.069-.2268.095-.3475.072-1.1436-.221-2.1858.207-2.809.46-.082.034-.1574.065-.2238.09-.6778.26-1.85.911-2.792 1.432-.311.173-.5959.33-.8301.456-.0663.038-.1409.059-.2172.062z"></path><path d="m47.1949 167.671c-.0589 0-.1173-.011-.1717-.034-.1142-.045-.2058-.134-.2546-.246-.0488-.113-.0508-.241-.0056-.355.0923-.229.2081-.509.3343-.82.4671-1.138 1.1072-2.699 1.3141-3.455.0371-.112.1161-.206.2206-.263.1045-.056.2266-.07.3411-.039.1145.032.2126.106.2742.207.0615.102.0818.223.0566.339-.2225.812-.8743 2.402-1.3505 3.563-.1301.307-.2407.587-.3317.813-.0345.085-.0935.158-.1694.21-.076.051-.1655.079-.2574.08z"></path><path d="m49.4826 173.306c-.0931 0-.1839-.029-.2602-.082-.051-.035-.0946-.079-.1281-.131-.0336-.051-.0566-.109-.0675-.17s-.0096-.123.0039-.183.0389-.117.0746-.167c.765-1.1 3.345-4.937 4.4821-8.145.0409-.115.126-.21.2367-.263.1106-.053.2377-.059.3533-.018.1156.04.2102.126.2631.236.0528.111.0595.238.0186.354-1.1709 3.317-3.8134 7.24-4.594 8.364-.0422.063-.0992.114-.1658.15-.0667.036-.1411.054-.2167.055z"></path><path d="m54.0475 176.463c-.1678.001-.3348-.025-.4944-.077-.5009-.161-.8664-.579-1.0291-1.171-.4046-1.489.432-4.79 1.1046-7.442.294-1.162.5478-2.166.6336-2.763.0033-.064.02-.127.0488-.184.0289-.057.0694-.108.119-.149.0495-.041.107-.071.1688-.088s.1265-.022.19-.012c.0635.009.1244.031.1789.065s.1013.079.1374.132.0608.113.0725.176.0101.128-.0046.19c-.0924.651-.3513 1.671-.6506 2.863-.6115 2.413-1.448 5.717-1.1072 6.972.0794.293.2212.475.4216.539.32.104.804-.06 1.262-.431.9107-.734 2.2625-2.661 3.544-7.669.0151-.059.0415-.115.0779-.163.0364-.049.082-.09.1342-.12.0522-.031.1099-.052.17-.06.0601-.009.1212-.006.18.009s.114.042.1625.078c.0486.037.0895.082.1204.134.031.053.0513.11.0599.171.0086.06.0053.121-.0097.18-1.0786 4.218-2.377 6.963-3.8576 8.16-.54.429-1.1124.66-1.6329.66z"></path><path d="m61.3134 175.116c-.0874-.001-.1745-.009-.2602-.026-.7286-.142-1.171-.828-1.2737-1.404-.229-1.288.0637-3.719.3486-5.532.0059-.063.0246-.124.0549-.179.0303-.056.0716-.104.1215-.143.0498-.039.107-.067.1681-.082.0611-.016.1248-.019.1871-.01.0624.01.122.033.1753.066.0534.034.0992.079.1347.131.0356.052.06.111.0719.173s.011.126-.0027.187c-.3903 2.465-.5126 4.32-.3513 5.227.0494.282.2602.606.5399.659.3214.06.7312-.26 1.1241-.889.3461-.553 1.1085-2.933 1.3739-3.804.0376-.114.1187-.21.226-.266.1072-.056.2321-.067.3477-.032s.2128.115.2707.221.0719.23.039.347c-.1001.332-1.0005 3.269-1.4741 4.025-.6648 1.052-1.3231 1.331-1.8214 1.331z"></path><path d="m98.2017 176.595c-.0356.001-.071-.004-.1054-.013-.0592-.013-.115-.038-.1644-.074-.0494-.035-.0914-.08-.1235-.131-.0322-.052-.0538-.109-.0638-.169s-.0081-.121.0056-.18c.1496-.643.2602-1.599.3409-2.924.0024-.061.0171-.121.0433-.176.0261-.055.0632-.104.1089-.145.0457-.04.0991-.071.157-.091.0579-.019.1191-.026.18-.021.0605.003.1198.019.1744.045.0545.027.1033.064.1436.11.0402.045.0711.098.0909.155.0197.058.028.118.0243.179-.0833 1.396-.1991 2.375-.363 3.078-.0235.101-.0806.192-.1621.257s-.1825.1-.2867.1z"></path><path d="m103.205 177.328h-.046c-.564-.056-1.344-.085-2.098-.113-.629-.024-1.2233-.046-1.6579-.082-1.5222-.13-1.7057-.229-2.4564-1.356-.0336-.051-.057-.107-.0688-.167-.0117-.059-.0117-.121.0002-.18.0119-.06.0354-.116.0692-.167.0337-.05.0771-.093.1276-.127s.1071-.057.1666-.069c.0596-.012.1208-.012.1803 0s.1161.036.1665.07c.0504.033.0937.077.1274.127.5646.847.5646.847 1.7655.947.4124.036.9968.056 1.6148.08.767.028 1.561.058 2.153.117.117.012.225.069.302.159.077.089.116.205.111.323-.006.117-.057.228-.141.31-.085.082-.198.128-.316.129z"></path><path d="m103.114 179c-.056 0-.111-.01-.163-.028-.114-.044-.207-.131-.258-.243-.05-.111-.054-.239-.011-.353.451-1.208.424-2.514.39-3.904-.008-.337-.015-.674-.015-1.009.006-.118.057-.23.143-.311.086-.082.201-.127.319-.127.119 0 .233.045.319.127.086.081.137.193.144.311 0 .328.007.659.014.989.031 1.41.062 2.863-.453 4.242-.032.089-.09.166-.167.22-.076.055-.168.085-.262.086z"></path><path d="m110.347 179.309c-3.715 0-6.661-.051-7.168-.131-1.024-.169-1.761-1.712-1.899-2.019-.05-.112-.053-.239-.009-.354s.131-.207.243-.257.239-.054.354-.01c.114.044.207.132.257.244.251.559.808 1.419 1.205 1.484 1.26.211 19.092.177 23.82-.328.061-.006.122-.001.18.017.058.017.113.045.16.084.047.038.086.085.115.138.03.054.048.112.054.173.007.06.001.121-.016.179-.017.059-.046.113-.084.16s-.085.087-.139.116c-.053.029-.112.047-.172.053-3.057.322-10.961.451-16.901.451z"></path><path d="m53.5642 169.748-1.5027-.013c-.1225 0-.24-.049-.3266-.135-.0866-.087-.1353-.204-.1353-.327 0-.122.0487-.24.1353-.327.0866-.086.2041-.135.3266-.135l1.5027.013c.1225 0 .24.049.3266.135.0866.087.1353.205.1353.327 0 .123-.0487.24-.1353.327-.0866.086-.2041.135-.3266.135z"></path><path d="m60.2791 169.807-1.3582-.012c-.1225 0-.24-.049-.3266-.135-.0867-.087-.1353-.205-.1353-.327 0-.123.0486-.24.1353-.327.0866-.086.2041-.135.3266-.135l1.3582.012c.1225 0 .24.048.3266.135.0867.087.1353.204.1353.327 0 .122-.0486.24-.1353.326-.0866.087-.2041.136-.3266.136z"></path><path d="m291.539 199.831c-.025.002-.049.002-.073 0l-38.857-6.116c-.115-.025-.216-.093-.283-.191-.066-.097-.093-.216-.074-.332.018-.117.08-.221.174-.293.093-.072.21-.106.327-.095l38.857 6.116c.115.018.22.078.293.17.072.091.108.207.098.323-.009.116-.061.225-.147.304s-.199.123-.315.122z"></path><path d="m20.0271 169.541h-.0065l-19.565131-.252c-.060595-.001-.120461-.014-.176166-.038-.055705-.023-.106154-.058-.148456-.101-.0423028-.044-.0756275-.095-.0980631-.151-.0224356-.057-.03354071-.117-.032681-.177-.00131532-.062.0099909-.123.033217-.18.0232261-.056.0578748-.108.1017971-.151.043922-.042.09618-.076.153526-.098.057347-.021.118558-.031.179835-.028l19.563822.251c.1184.006.2299.058.3115.144s.1271.2.1271.319c0 .118-.0455.232-.1271.318s-.1931.138-.3115.144z"></path><path d="m59.4321 197.368c-.3304 0-.6856-.187-.8873-.314l-34.1472-18.781c-.3708-.182-.6976-.442-.9576-.763-.2891-.39-.5278-.816-.7103-1.266l-21.65203-51.766c-.119692-.269-.382502-.965-.152217-1.432.290137-.589 1.111087-.528 1.272417-.509l26.93163 5.382c.509.138.975.402 1.3544.768.5373.544.8756 1.41.8886 1.446l28.4239 65.269c.3149.781.3899 1.325.2251 1.633-.0405.075-.096.142-.1631.195-.0672.053-.1445.091-.2272.113-.065.017-.1319.025-.1991.025zm-57.67918-73.889c.02326.219.0817.432.17304.632l21.65974 51.791c.149.366.3416.713.5738 1.033.1736.212.3894.385.6336.509l34.2175 18.818c.0364.022.0755.044.1132.064-.0505-.191-.1122-.379-.1848-.562l-28.4252-65.282c-.0091-.025-.2914-.742-.6921-1.148-.2541-.243-.5629-.422-.9004-.521l-26.86654-5.358c-.10129-.009-.20327 0-.30184.024z"></path><path d="m50.2358 175.009c-.1185-.005-.2305-.056-.3129-.141s-.1289-.199-.1299-.318c-.001-.118.0435-.233.1245-.32.0809-.086.1921-.139.3105-.146l2.4837-.051c.0626-.004.1254.004.1846.025s.1137.053.16.095c.0463.043.0835.094.1095.151.0259.057.0399.119.0412.182.0014.062-.0101.125-.0335.183-.0235.058-.0586.111-.1031.155s-.0975.079-.1558.102-.1207.034-.1834.032l-2.4863.051z"></path><path d="m56.5635 174.797c-.0606.001-.1209-.009-.1775-.031-.0565-.022-.1081-.055-.1519-.097-.0885-.085-.1396-.202-.1422-.324-.0026-.123.0436-.241.1284-.33.0848-.088.2012-.139.3237-.142l3.8381-.16c.1198-.001.2352.045.3219.128.0867.082.1379.195.1428.315s-.0369.237-.1165.326c-.0797.09-.191.145-.3105.154l-3.8368.161z"></path><path d="m62.6125 174.545c-.1189-.004-.2319-.053-.3158-.137-.0838-.084-.132-.198-.1345-.317s.0408-.234.121-.322.1912-.141.3098-.15l8.9421-.373c.0606-.003.1212.007.1782.028.057.02.1094.052.1541.093s.0809.091.1065.146c.0255.055.04.115.0426.175.0025.061-.0069.122-.0277.179-.0209.057-.0527.109-.0938.154-.0411.044-.0906.081-.1456.106-.0551.026-.1146.04-.1753.043l-8.9421.373z"></path><path d="m59.5322 197.359c-.0606.001-.1209-.01-.1773-.032-.0564-.023-.1079-.056-.1515-.098-.0437-.042-.0785-.092-.1027-.148s-.0371-.116-.0381-.176c-.0011-.061.0099-.121.0321-.178.0223-.056.0555-.108.0976-.151.0422-.044.0925-.079.1482-.103.0556-.024.1155-.037.1761-.038l57.7204-2.005c.108.001.214-.03.304-.09.008-.076-.002-.153-.029-.224-.026-.072-.07-.136-.126-.187l-35.4992-16.006c-.0554-.025-.1053-.061-.1469-.105s-.074-.096-.0955-.153-.0317-.117-.0298-.178.0157-.12.0406-.176c.0249-.055.0606-.105.1048-.147.0442-.041.0962-.074.153-.095.0568-.022.1172-.032.1779-.03s.1204.016.1758.041l35.5683 16.033c.03.014.058.031.086.05.197.153.352.355.447.586s.127.483.094.73c-.107.682-.803.871-1.197.875l-57.7171 2.005z"></path><path d="m184.283 157.466c-.02.002-.041.002-.062 0-.121-.017-.23-.082-.303-.179-.073-.098-.104-.22-.087-.341.91-6.7 3.278-11.682 6.022-17.448.629-1.321 1.278-2.686 1.941-4.135 6.676-14.575 15.139-30.19 16.767-33.161-1.609-.487-6.192-1.979-7.594-3.5369-2.917-3.2415-5.111-8.9789-5.204-9.2209-.037-.1132-.029-.2361.023-.3433.051-.1072.142-.1906.253-.2327s.234-.0399.344.0063c.11.0461.197.1327.245.2417.022.0586 2.225 5.8181 5.024 8.9308 1.243 1.3793 5.985 2.943 7.714 3.429.067.019.129.053.181.099.052.047.093.104.12.168s.039.134.035.203c-.004.07-.023.138-.056.199-.096.173-9.647 17.516-17.012 33.603-.667 1.455-1.317 2.824-1.952 4.147-2.711 5.697-5.052 10.617-5.942 17.177-.017.11-.072.209-.155.282-.084.072-.191.112-.302.112z"></path><path d="m167.482 101.312c-.085 0-.168-.023-.24-.067s-.131-.107-.17-.182c-1.205-2.3003-3.383-1.9151-3.47-1.8969-.091.0177-.185.0076-.27-.0289-.086-.0366-.158-.0978-.208-.1759s-.075-.1694-.073-.2621.033-.1825.087-.2579c.079-.108 7.842-10.897 9.081-13.2614 2.212-4.2331 6.539-9.5463 6.582-9.5997.077-.095.189-.1555.311-.1679s.244.0241.339.1016.156.1895.168.3116c.013.122-.024.2439-.101.339-.043.0521-4.308 5.295-6.479 9.4435-1.087 2.082-6.787 10.0772-8.604 12.6134 1.104.1067 2.554.6884 3.455 2.4136.057.109.068.235.032.352-.037.117-.118.215-.227.272-.065.035-.139.053-.213.053z"></path><path d="m165.95 154.009c-.101 0-.2-.034-.28-.095-.081-.062-.139-.148-.166-.246-3.086-11.291-4.424-49.778-4.431-50.165-.005-.114.034-.226.108-.314.074-.087.177-.144.291-.159.039 0 3.932-.566 6.366-2.904 2.49-2.3901 4.793-6.8652 4.814-6.9107.028-.054.066-.102.112-.1413s.1-.0691.157-.0877c.058-.0187.119-.0257.179-.0208.061.0049.12.0217.174.0494s.102.0657.141.1119c.039.0463.069.0998.088.1576.018.0577.025.1186.021.1791-.005.0605-.022.1194-.05.1734-.096.1887-2.395 4.6573-4.998 7.1571-2.193 2.105-5.343 2.863-6.468 3.081.152 4.165 1.498 38.982 4.386 49.55.016.058.02.119.012.179-.007.061-.027.119-.057.171-.03.053-.07.099-.118.137-.048.037-.103.064-.161.08-.039.011-.079.017-.12.017z"></path><path d="m175.283 163.303c-.12 0-.235-.047-.322-.13-.086-.084-.136-.198-.14-.318 0-.186-.52-18.738.989-36.696 1.091-12.977 3.383-24.373 4.148-26.9369.188-.6298.798-1.5447 1.569-2.7041.938-1.408 2.103-3.1595 2.755-4.8148.575-1.4613.843-2.7873 1.079-3.9585.274-1.3624.511-2.5388 1.159-3.4003.601-.8003 1.637-1.6292 3.069-2.7769 3.432-2.7484 8.618-6.8969 13.977-15.4164.032-.0533.074-.0997.123-.1365.05-.0368.107-.0632.167-.0777.06-.0146.122-.0169.183-.0068.061.01.12.0322.172.0652.052.0331.097.0763.132.127.036.0508.06.1082.073.1687s.013.123.001.1836c-.011.0607-.035.1184-.07.1697-5.442 8.6445-10.912 13.0272-14.181 15.6454-1.329 1.0631-2.377 1.9038-2.91 2.6104-.532.7066-.726 1.7281-.986 3.0294-.243 1.2076-.52 2.5765-1.124 4.1134-.687 1.7463-1.884 3.5434-2.845 4.9878-.7 1.0514-1.301 1.9597-1.453 2.4568-.763 2.5385-3.028 13.8435-4.113 26.7505-1.505 17.894-.991 36.404-.986 36.589.002.06-.008.121-.03.177-.021.057-.054.109-.095.153-.042.044-.092.08-.147.104-.056.025-.115.039-.176.04z"></path><path d="m193.085 94.2056c-.028-.0001-.055-.0027-.082-.0078-.096-.0174-.183-.0645-.25-.1346-.068-.0701-.111-.1596-.125-.2558-.009-.0612-.94-6.1825-3.604-7.9717-.308-.2181-.661-.3652-1.033-.4309s-.754-.0483-1.119.0509c-.117.0235-.238.0008-.339-.0634-.101-.0641-.173-.1647-.201-.2808-.029-.116-.011-.2386.049-.342.059-.1034.157-.1797.272-.213.489-.1291 1.001-.1502 1.5-.0619s.972.2839 1.388.5733c2.212 1.4874 3.315 5.3093 3.759 7.325.727-1.3221 2.04-3.7204 3.659-6.7134.059-.1078.158-.1881.275-.2231.118-.035.244-.0219.352.0364s.188.1571.223.2746.022.2441-.036.352c-2.496 4.6104-4.265 7.8077-4.283 7.8441-.04.0731-.098.1342-.169.1768-.072.0426-.153.0651-.236.0653z"></path><path d="m180.473 99.3926c-.112 0-.219-.0403-.303-.1135s-.139-.1744-.154-.2847c-.009-.0599-.812-5.986-.241-11.8171.137-1.3936-.221-2.7613-.567-4.0847-.379-1.4431-.735-2.8082-.47-4.1563.012-.0598.035-.1168.069-.1676s.077-.0945.127-.1286c.051-.034.108-.0578.167-.07.06-.0121.121-.0124.181-.0008s.117.0349.168.0685c.051.0337.094.077.128.1275s.058.1072.07.1669.013.1212.001.181c-.224 1.1426.107 2.4074.458 3.7452.366 1.4028.746 2.8511.592 4.4087-.559 5.7153.229 11.5425.237 11.601.017.1207-.015.2432-.088.3407s-.182.1621-.302.1798c-.025.0031-.049.0044-.073.004z"></path><path d="m174.192 94.2525h-.039c-.108-.0092-.21-.0565-.287-.1337-.078-.0772-.125-.1792-.134-.2879l-.238-2.8082c-.005-.0605.002-.1214.02-.1793.018-.0578.048-.1115.087-.1579s.087-.0846.141-.1125.113-.0449.173-.05c.061-.0051.122.0017.18.0201.057.0184.111.048.157.0872.047.0391.085.0871.113.141s.045.1128.05.1733l.032.3904c.818-2.4373 2.266-5.9703 4.025-6.8448.237-.1289.501-.2028.771-.2163.271-.0135.54.0337.79.1382.107.051.191.1412.233.2521.043.1108.042.2338-.004.3436-.045.1097-.131.1978-.24.2461-.108.0483-.231.053-.343.0132-.127-.0529-.265-.0758-.403-.0671-.137.0088-.271.0491-.391.1178-1.882.9369-3.702 6.5169-4.244 8.5885-.026.0992-.084.1869-.165.2495s-.181.0966-.284.0967z"></path><path d="m97.0193 198.929c-.044 0-.0879-.006-.1301-.019l-8.3735-2.527c-.1173-.036-.2157-.116-.2735-.225-.0579-.108-.0704-.234-.0348-.352.0355-.117.1162-.215.2243-.273s.2347-.071.352-.035l8.2929 2.504 72.6264-4.491-46.533-9.726-25.9347.911c-.1221.003-.2404-.042-.3298-.125-.0895-.083-.1429-.198-.149-.32-.0042-.123.0404-.242.1241-.332s.1995-.143.3222-.147l25.9922-.911c.037 0 .074.004.111.01l49.936 10.439c.106.027.2.089.264.178.065.088.096.196.088.305s-.054.212-.13.29c-.076.079-.178.128-.287.138l-76.1369 4.708z"></path><path d="m99.2065 205.48c-.0518 0-.1032-.008-.1523-.025l-24.5533-8.566c-.1119-.043-.2027-.129-.2531-.238s-.0564-.233-.017-.346c.0395-.114.1215-.207.2287-.261.1072-.055.2312-.065.3459-.029l24.4596 8.533 65.273-5.927-13.069-3.089c-.119-.028-.222-.103-.286-.207-.064-.105-.085-.23-.056-.35.028-.119.102-.222.207-.286.104-.064.23-.085.349-.056l15.832 3.741c.108.024.203.086.269.175.066.088.098.198.09.308s-.055.213-.132.292c-.078.078-.181.127-.291.136l-68.2016 6.194z"></path><path d="m134.195 36.1381c-.115.006-.229-.0314-.318-.1046-.089-.0733-.147-.1772-.163-.2914-.017-.1141.01-.2302.075-.3255s.163-.1628.276-.1894l6.925-2.1354c.117-.0362.244-.0244.352.0328.109.0572.19.1552.226.2724.037.1171.025.2439-.032.3524-.058.1085-.156.1898-.273.226l-6.927 2.1354c-.045.0166-.093.0259-.141.0273z"></path><path d="m141.834 28.6011h-.02l-9.093-.3683c-.122-.005-.237-.0584-.321-.1484-.083-.09-.127-.2093-.122-.3317.007-.1218.062-.2358.151-.3185.09-.0827.208-.1275.33-.1253l9.093.3683c.123.0024.239.0534.324.1417.085.0884.131.2068.129.3294-.003.1225-.054.239-.142.3239-.088.085-.207.1313-.329.1289z"></path><path d="m142.602 22.8493c-.053 0-.107-.0097-.157-.0286l-7.4-2.6885c-.116-.0419-.21-.1279-.261-.2391-.052-.1111-.058-.2383-.016-.3536s.128-.2092.239-.261c.111-.0519.238-.0575.354-.0155l7.4 2.691c.103.0369.189.1089.243.2032.055.0942.074.2048.055.312-.019.1073-.075.2044-.159.2742-.083.0698-.189.1078-.298.1072z"></path><path d="m59.5493 196.026c-.1188-.004-.2315-.053-.3148-.138s-.1309-.198-.1329-.317.0417-.234.1222-.321c.0804-.088.1913-.141.3099-.149l58.0263-1.944c.122-.002.241.043.33.127.089.083.142.198.148.321.002.06-.008.121-.029.178-.022.056-.054.109-.095.153-.042.044-.092.08-.147.105s-.115.039-.176.041l-58.0261 1.944z"></path><path d="m58.4854 193.432c-.1225.002-.241-.044-.3295-.129-.0884-.085-.1395-.201-.1421-.324-.0026-.122.0436-.241.1283-.329.0848-.089.2013-.14.3238-.142l32.0382-1.349-27.331-14.75c-.1079-.058-.1881-.157-.2231-.274-.035-.118-.022-.244.0364-.352.0583-.108.157-.188.2745-.223s.2441-.022.3519.036l28.8091 15.548c.0895.048.1608.123.2029.216.0421.092.0527.196.03.295-.0226.099-.0772.187-.1553.252s-.1753.102-.2767.106l-33.7153 1.417z"></path><path d="m204.526 68.1291c-.098-.0001-.194-.0314-.273-.0894s-.138-.1397-.168-.2334c-.169-.5361-.443-1.1165-.574-1.218-.053-.0269-.101-.0644-.14-.1101-.04-.0457-.069-.0988-.088-.1561-.018-.0573-.025-.1177-.02-.1777.006-.06.023-.1183.051-.1716.057-.1092.155-.1916.273-.2293.117-.0377.245-.0278.355.0276.485.2434.851 1.205 1.025 1.7568.037.117.026.2438-.031.3526-.056.1087-.154.1907-.27.2277-.046.0139-.093.0209-.14.0209z"></path></g></svg>