<svg xmlns="http://www.w3.org/2000/svg" viewBox="0 0 45 48"><path d="m24.4794 39.3297c.9727-.7367 1.5889-1.9867 1.5889-3.4645v-1.2256c0-2.3809-1.5947-4.1758-3.71-4.1758s-3.71 1.7949-3.71 4.1758v1.2256c0 1.4779.6165 2.728 1.5892 3.4647-2.4648.6265-4.7982 2.1587-4.7982 3.424v4.2861c0 .2764.2236.5.5.5s.5-.2236.5-.5v-4.2861c0-.6992 3.0098-2.7148 5.9194-2.7148 2.7603 0 5.9194 1.9268 5.9194 2.7148v4.2861c0 .2764.2236.5.5.5s.5-.2236.5-.5v-4.2861c.0002-1.2654-2.3335-2.7979-4.7987-3.4242zm-4.831-3.4645v-1.2256c0-1.8398 1.1396-3.1758 2.71-3.1758s2.71 1.3359 2.71 3.1758v1.2256c0 1.8389-1.1396 3.1738-2.71 3.1738s-2.71-1.3349-2.71-3.1738z"></path><path d="m24.4793 9.3258c.9727-.7368 1.5891-1.9869 1.5891-3.4645v-1.226c0-2.3804-1.5947-4.1753-3.71-4.1753s-3.71 1.7949-3.71 4.1753v1.2261c0 1.4777.6165 2.7279 1.5892 3.4647-2.465.6263-4.7982 2.1587-4.7982 3.424v4.2861c0 .2764.2236.5.5.5s.5-.2236.5-.5v-4.2862c0-.6987 3.0098-2.7148 5.9194-2.7148 2.7603 0 5.9194 1.9272 5.9194 2.7148v4.2861c0 .2764.2236.5.5.5s.5-.2236.5-.5v-4.2861c.0001-1.2654-2.3337-2.7979-4.7989-3.4242zm-4.8309-3.4645v-1.226c0-1.8398 1.1396-3.1753 2.71-3.1753s2.71 1.3354 2.71 3.1753v1.2261c0 1.8389-1.1396 3.1738-2.71 3.1738s-2.71-1.335-2.71-3.1739z"></path><path d="m39.6836 33.7643c.8352-.7524 1.3633-1.9029 1.3633-3.2574v-1.2256c0-2.3799-1.5947-4.1748-3.71-4.1748s-3.71 1.7949-3.71 4.1748v1.2256c0 1.6404.7676 2.9863 1.9312 3.6746-2.1777.7164-4.0718 2.0742-4.0718 3.2141v1.0723c0 .2764.2236.5.5.5s.5-.2236.5-.5v-1.0723c0-.6992 3.0098-2.7148 5.9199-2.7148 3.3877 0 3.7793 1.5498 3.7793 2.7148 0 2.0566-1.0449 6.2666-1.0557 6.3086-.0664.2676.0967.5391.3643.6064.041.0098.0811.0146.1211.0146.2246 0 .4287-.1514.4854-.3789.0439-.1777 1.085-4.3711 1.085-6.5508-.0001-1.4929-.6467-3.2371-3.502-3.6312zm-5.0566-3.2575v-1.2256c0-1.8398 1.1396-3.1748 2.71-3.1748s2.71 1.335 2.71 3.1748v1.2256c0 1.8398-1.1396 3.1748-2.71 3.1748s-2.71-1.3349-2.71-3.1748z"></path><path d="m40.7853 15.5187c.8166-.7531 1.3318-1.8907 1.3318-3.2281v-1.2256c0-2.3804-1.5947-4.1758-3.71-4.1758s-3.71 1.7954-3.71 4.1758v1.2256c0 1.8778 1.0002 3.3755 2.4581 3.9304-.973.58-1.7813 1.4854-2.4054 2.7346-.123.2471-.0234.5474.2236.6709.248.1226.5469.0244.6709-.2236.9873-1.9775 2.416-2.9385 4.3672-2.9385.9756 0 3.2451.2646 3.2451 2.7148 0 1.3706-.4736 3.249-.7559 4.2466-.0752.2656.0801.542.3457.6172.0449.0132.0908.019.1357.019.2188 0 .4189-.1436.4814-.3638.3613-1.2798.793-3.1021.793-4.519.0003-2.0543-1.3141-3.4017-3.4712-3.6605zm-5.088-3.2282v-1.2256c0-1.8403 1.1396-3.1758 2.71-3.1758s2.71 1.3354 2.71 3.1758v1.2256c0 1.8394-1.1396 3.1743-2.71 3.1743s-2.71-1.3349-2.71-3.1743z"></path><path d="m9.1578 34.1817c1.1636-.6882 1.9315-2.0342 1.9315-3.6749v-1.2256c0-2.3799-1.5947-4.1748-3.7095-4.1748-2.1152 0-3.71 1.7949-3.71 4.1748v1.2256c0 1.3545.528 2.5048 1.3631 3.2573-2.8568.3937-3.5037 2.1382-3.5037 3.6314 0 2.1797 1.0405 6.373 1.0845 6.5508.0571.2275.2607.3789.4849.3789.04 0 .0811-.0049.1216-.0146.2681-.0674.4307-.3389.3643-.6064-.0107-.042-1.0552-4.25-1.0552-6.3086 0-1.165.3916-2.7148 3.7798-2.7148 2.9097 0 5.9194 2.0156 5.9194 2.7148v1.0723c0 .2764.2236.5.5.5s.5-.2236.5-.5v-1.0723c0-1.1398-1.8935-2.4974-4.0707-3.2139zm-4.4879-3.6749v-1.2256c0-1.8398 1.1396-3.1748 2.71-3.1748 1.5698 0 2.7095 1.335 2.7095 3.1748v1.2256c0 1.8398-1.1396 3.1748-2.7095 3.1748-1.5703 0-2.71-1.3349-2.71-3.1748z"></path><path d="m1.8716 24.043c.2656-.0752.4199-.3516.3447-.6172-.2822-.9961-.7554-2.8721-.7554-4.2466 0-2.4502 2.269-2.7148 3.2446-2.7148 1.9517 0 3.3804.9609 4.3672 2.938.123.2476.4258.3481.6704.2241.2471-.123.3477-.4233.2241-.6704-.6237-1.2498-1.4321-2.1555-2.4054-2.7355 1.4575-.5552 2.4572-2.0527 2.4572-3.9301v-1.2256c0-2.3804-1.5947-4.1758-3.71-4.1758-2.1147 0-3.7095 1.7954-3.7095 4.1758v1.2256c0 1.3375.5153 2.4752 1.3318 3.2282-2.1566.259-3.4705 1.6064-3.4705 3.6605 0 1.4204.4316 3.2417.7935 4.519.062.2202.2627.3638.4805.3638.0455 0 .0914-.0058.1368-.019zm1.728-11.7525v-1.2256c0-1.8403 1.1396-3.1758 2.7095-3.1758 1.5703 0 2.71 1.3354 2.71 3.1758v1.2256c0 1.8394-1.1396 3.1743-2.71 3.1743-1.5698 0-2.7095-1.3349-2.7095-3.1743z"></path></svg>