<svg xmlns="http://www.w3.org/2000/svg" xmlns:xlink="http://www.w3.org/1999/xlink" fill="none" height="200" viewBox="0 0 246 200" width="246"><clipPath id="a"><path d="m.998047 0h245v185h-245z"></path></clipPath><path d="m23.7074 62.3294c8.5726-16.5806 64.0676-30.5139 92.1946-1.0289l.532.5583c1.233 1.2928 3.356 1.052 4.27-.4842 18.727-31.5017 66.459-28.8181 79.921-13.7518 13.463 15.0662 12.559 28.3159 13.44 44.618 2.936 54.2972-76.947 102.7022-93.042 103.6372s-100.7377-38.693-103.6734-92.99c-.7722-14.2814-2.2148-23.978 6.3578-40.5586z" fill="#ffede8"></path><g clip-path="url(#a)"><path d="m238.194 184.531c.001.089-.016.178-.049.261-.034.083-.083.159-.146.222-.063.064-.138.115-.22.15s-.171.053-.26.054c-.179 0-.351-.07-.478-.196-.128-.125-.201-.296-.204-.474-.086-9.926-8.934-13.662-9.313-13.817-3.68-1.706-7.619-3.046-11.429-4.34-3.28-1.117-6.379-2.169-9.209-3.406-4.536-1.787-6.454-4.586-7.273-5.78l-.112-.159c-.086-.124-.348-.502-.768-.223l-.038.021c-.024.015-.047.026-.072.038l-.044.02h-.011-.008c-21.626 7.818-29.307 2.153-32.198.021-.283-.219-.578-.421-.884-.606-1.473 3.113-7.286 6.491-7.534 6.634l-.037.019-.026.013c-.733.319-1.504.645-2.313.986-1.116.471-2.278.96-3.51 1.503-4.21 1.965-13.823 5.785-13.919 5.823-.03.012-.06.022-.091.029-.401.1-9.865 2.569-9.95 13.218-.002.179-.075.35-.203.475-.127.125-.299.195-.478.195-.181-.001-.354-.074-.48-.203-.127-.129-.198-.303-.197-.484.087-11.306 10.113-14.295 10.936-14.519.654-.26 9.767-3.891 13.824-5.784 1.255-.558 2.419-1.044 3.544-1.518.789-.335 1.544-.652 2.263-.964.462-.271 5.721-3.403 6.954-6.024.203-.432.489-.697.851-.788.214-.054.439-.045.649.023.103-.329.185-.665.244-1.005l.007-.036c.365-1.581.047-4.864 0-5.374-1.468 0-2.743-.217-3.722-.658-3.343-1.592-5.534-3.737-8.1-7.923-1.943-3.052-4.325-8.584-4.774-12.181-.351-2.978-.224-4.947-.104-6.851.102-1.279.135-2.561.099-3.843-.12-2.584-.448-5.154-.979-7.685-.21-1.389-.264-2.797-.161-4.198.295-4.684 2.02-10.3606 5.641-13.3426.14-.1149.319-.1697.499-.1523.18.0173.346.1055.461.245.114.1395.169.319.152.4989s-.106.3456-.245.4605c-3.151 2.5944-4.59 7.1895-5.026 11.0865 1.709-.717 3.879-.538 6.031.54.138.068.248.181.313.321.065.139.082.296.046.445-.035.15-.12.283-.24.378-.121.096-.27.147-.424.147-.105 0-.209-.025-.304-.071-2.106-1.054-4.17-1.101-5.557-.14-.069 1.178-.018 2.361.153 3.529.546 2.594.882 5.228 1.005 7.876.038 1.331.005 2.663-.099 3.991-.119 1.844-.239 3.75.096 6.6.425 3.405 2.707 8.686 4.579 11.625 2.772 4.524 4.855 6.142 7.516 7.408 2.457 1.103 8.307.587 14.723-2.549 4.335-2.169 7.81-6.57 7.844-6.614.055-.073.123-.134.201-.18.078-.047.165-.077.255-.089s.182-.006.269.018c.088.024.17.065.242.121.071.055.131.125.175.205.044.079.072.166.082.257.01.09.002.181-.024.268s-.069.169-.126.239c-.149.19-3.693 4.691-8.315 6.996-3.722 1.819-7.607 2.92-10.811 3.168.077.771.366 3.981-.027 5.716-.088.494-.215.979-.381 1.452l.223.16c2.695 1.986 9.796 7.216 30.096.088-.329-.495-.621-1.013-.873-1.551-2.304-4.898-2.605-24.273-2.617-25.095-.001-.156.053-.308.151-.431.098-.122.235-.206.388-.239.044-.009.089-.014.133-.014.09-.003.179.012.263.045.084.032.16.081.224.144.065.062.116.137.151.22.035.082.053.171.053.261 0 .019 0 .214.011.558.067 3.257.503 19.785 2.476 23.977.269.572.588 1.119.952 1.636.249-.066.509-.078.762-.035.347.061.851.263 1.281.882l.112.163c.814 1.187 2.511 3.658 6.682 5.297l.016.007c2.776 1.214 5.849 2.258 9.101 3.363 3.843 1.306 7.818 2.656 11.534 4.382.039.031 10.01 4.21 10.1 15.063zm-78.083-61.415c.606-.54 1.436-1.282 1.693-2.691.447-2.83-.825-6.553-.88-6.71-.03-.085-.075-.163-.135-.23-.059-.067-.131-.121-.212-.16-.08-.039-.168-.062-.257-.067-.089-.006-.179.007-.263.036-.085.029-.163.075-.23.135-.067.059-.121.131-.16.212-.039.08-.062.168-.067.257-.006.089.007.179.036.263.012.035 1.215 3.561.824 6.031-.169.933-.722 1.427-1.256 1.899-.506.447-1.079.962-1.109 1.787-.031.84.518 1.787 1.836 3.149.126.129.297.202.477.205.18.002.353-.067.482-.191.13-.125.204-.296.208-.476.004-.179-.063-.353-.186-.483-1.222-1.268-1.466-1.871-1.452-2.153.005-.225.251-.455.651-.813zm16.194-17.289c.158 0 .311-.055.433-.155.121-.101.205-.241.235-.396s.005-.315-.07-.454-.196-.247-.342-.307c-5.438-2.206-9.828-.5-10.009-.428-.168.067-.303.198-.374.364-.072.166-.074.354-.007.522s.198.302.364.374c.166.071.353.074.521.007.041-.016 4.085-1.564 8.993.423.081.033.167.05.254.05zm16.492 20.445c.032.154.116.292.238.39.122.099.275.152.432.151.047 0 .094-.005.14-.014.242-.051.476-.112.706-.168 3.496-.934 5.675-3.096 6.478-6.422.73-2.76.096-5.388-1.654-6.857-1.541-1.295-3.745-1.504-6.124-.602-.223.085-.451.18-.682.286-.164.075-.292.213-.354.383-.063.169-.055.357.02.521.076.164.214.291.383.354.17.062.357.055.522-.021 2.17-1.005 4.073-.958 5.36.122 1.341 1.127 1.808 3.222 1.21 5.48-.746 3.089-2.698 4.865-6.143 5.584-.089.018-.173.053-.249.103-.075.051-.139.116-.189.192-.05.075-.084.16-.101.249-.016.089-.015.181.004.269zm1.228-5.556c.116 0 .23-.029.331-.085s.186-.137.248-.235c.177-.284.795-1.133 1.519-1.65.141-.107.236-.265.263-.44.027-.176-.016-.355-.119-.499-.103-.145-.259-.243-.433-.275-.175-.032-.355.006-.502.105-1.091.782-1.852 1.986-1.884 2.037-.065.103-.1.222-.103.343-.004.122.026.242.085.348s.145.195.25.257c.104.061.224.094.345.094zm-39.983-7.913c-.993.142-1.702 1.135-1.564 2.41.142 1.135 1.135 1.986 2.122 1.986.993-.142 1.701-1.135 1.564-2.411-.138-1.277-1.13-2.127-2.123-1.985zm18.575 1.985c0-1.276-.993-2.268-2.122-2.122-1.133 0-1.984.993-1.843 2.268-.004.28.048.558.153.818.105.259.261.495.459.693s.434.354.693.459c.26.105.538.157.817.152.991.001 1.984-.992 1.842-2.268zm-14.89 18.198c-.1.15-.136.334-.101.511.036.177.14.333.29.434 1.253.834 3.048 1.243 4.98 1.243 2.358 0 4.914-.608 6.944-1.787.077-.045.144-.105.199-.176.054-.071.093-.152.116-.239.023-.086.028-.176.016-.265s-.041-.174-.086-.251-.105-.145-.176-.199-.152-.094-.239-.116c-.174-.046-.36-.021-.516.07-3.172 1.85-8.169 2.131-10.482.588-.15-.1-.334-.137-.511-.102s-.333.139-.434.289zm35.169-22.826c-.099-.151-.255-.257-.432-.293-.176-.037-.361-.002-.512.097-1.005.658-1.986.865-3.006.631-2.387-.547-4.091-3.344-4.117-3.387-.091-.153-.238-.264-.41-.309-.172-.046-.354-.023-.509.064l-.015.008c-.155.092-.267.243-.311.418-.045.175-.018.36.074.516.074.124 1.681 2.782 4.203 3.775.252.1.51.181.774.242.366.085.741.128 1.117.128 1.005 0 1.992-.317 2.953-.947.15-.1.255-.255.29-.432.036-.177 0-.361-.099-.511zm-19.313-15.748c-2.109-2.5811-3.915-4.8025-6.135-4.7388-1.132.0369-2.222.6913-3.312 1.9902-.194.2312-.388.4792-.582.7517-.052.0728-.089.1551-.109.2423s-.023.1775-.009.2657c.015.0883.047.1728.095.2487.047.0759.109.1417.182.1937.072.052.155.0891.242.1093s.177.023.266.0083c.088-.0148.172-.0467.248-.0941s.142-.1093.194-.1821c.322-.4634.688-.895 1.092-1.2888.606-.573 1.181-.8645 1.738-.8823 1.461-.0559 3.021 1.7769 4.803 3.957l.23.2814c2.326 2.8469 5.249 6.4218 9.392 7.4248.751.182 1.52.273 2.292.273 1.348-.014 2.683-.26 3.946-.729.085-.029.163-.075.23-.135s.122-.133.161-.214.061-.169.066-.259c.004-.09-.009-.179-.039-.264s-.077-.163-.137-.229c-.061-.067-.134-.121-.215-.159-.082-.038-.17-.06-.26-.064s-.179.01-.264.041c-6.779 2.423-10.677-2.343-14.115-6.5491zm-11.227-10.4269c-.023-.0866-.063-.1677-.117-.2388s-.122-.1308-.2-.1757c-.077-.0448-.163-.0739-.251-.0856-.089-.0117-.179-.0057-.266.0176-1.043.2781-2.019 1.2531-2.68 2.6804-.67 1.4441-1.087 3.5807-.447 5.5329.076.2335.167.4618.273.6835.082.1551.221.2723.388.3273s.348.0435.507-.0322c.158-.0756.281-.2095.344-.3737.062-.1642.058-.3461-.011-.5077-.035-.076-.069-.1541-.1-.2334-.559-1.3782-.447-3.2389.281-4.8248.48-1.0387 1.149-1.7602 1.787-1.9311.088-.022.171-.0614.243-.1158.073-.0544.134-.1227.179-.2009.046-.0782.076-.1648.088-.2546s.005-.1811-.018-.2686zm-17.088 19.2949c.107.145.267.243.445.271.179.028.361-.016.507-.123l.034-.026c.132-.112.218-.269.239-.441.02-.171-.025-.345-.127-.484-4.098-5.6146-3.22-11.2279 2.609-16.6849.067-.0605.122-.134.161-.216s.061-.171.065-.2617c.004-.0906-.011-.1812-.042-.2663-.032-.0851-.08-.163-.142-.2292-.062-.0663-.137-.1194-.219-.1564-.083-.037-.173-.057-.264-.0589-.09-.002-.18.0143-.265.0477-.084.0334-.161.0833-.226.1468-7.985 7.4762-5.918 14.1762-2.777 18.4809zm5.689-19.7618c.079.0316.164.0479.249.048.137-.0001.27-.0413.383-.1181.113-.0769.201-.1859.251-.313.034-.0837 3.395-8.3875 11.204-10.9451 3.744-1.2029 7.405-.9337 10.636-.6958 2.248.1653 4.413.3239 6.367-.0436 1.075-.186 2.101-.5892 3.015-1.185.15-.1002.255-.2561.29-.4333.036-.1772-.001-.3612-.101-.5115-.1-.1504-.256-.2547-.434-.2901-.177-.0354-.361.0011-.511.1013-2.202 1.4687-5.138 1.252-8.527 1.0052-3.351-.2468-7.157-.5272-11.159.7594-8.432 2.762-11.905 11.3763-12.049 11.7415-.01.0249-.018.0502-.025.076-.041.1606-.023.3309.053.4787.075.1479.202.2632.356.3243zm34.898-10.447c3.864-.2792 8.978 1.7959 13.013 5.2927 3.477 3.0155 5.6 6.5895 5.826 9.8149.012.172.089.333.215.4506.126.1175.292.1828.464.1827h.048c.057-.0048.114-.016.168-.0335.143-.0477.267-.1417.351-.2673s.124-.2755.114-.4263c-.252-3.5828-2.546-7.5008-6.294-10.7497-4.356-3.7783-9.716-5.9327-14.004-5.6222-.18.0132-.348.0974-.466.2342-.118.1367-.177.3148-.164.4951.013.1802.097.3478.234.466.137.1181.315.1771.495.1639zm10.575 55.2328c-.071.057-.129.127-.172.206-.044.08-.07.167-.079.257s0 .181.026.268c.027.086.07.167.128.236.058.07.129.127.21.169.08.041.168.067.258.074s.181-.003.267-.031.165-.073.234-.132c7.579-6.316 15.627-20.577 10.554-33.1029-.139-.3451-.287-.6891-.447-1.032-.077-.1622-.215-.2873-.385-.3479-.169-.0607-.355-.0519-.518.0243s-.289.2136-.351.3824-.055.3552.02.5186c6.197 13.2615-3.891 27.6295-9.748 32.5095zm-125.2554 3.901c1.4921 1.142 4.263 1.858 6.8709 1.858 1.8026 0 3.527-.342 4.6974-1.117.1504-.101.2547-.256.2901-.434.0354-.177-.0011-.361-.1013-.511-.1003-.15-.2561-.255-.4333-.29-.1772-.036-.3612.001-.5116.101-2.3454 1.564-7.866.937-9.9846-.683-.071-.056-.1523-.098-.2393-.122-.0871-.024-.1781-.031-.2677-.02-.0897.012-.1762.04-.2546.085-.0783.046-.1469.106-.2018.177-.0549.072-.095.154-.1179.242-.0229.087-.0282.178-.0155.268.0126.089.0429.175.0891.253.0463.077.1075.145.1801.199zm8.9024-18.894c-.0825-.034-.1712-.053-.2608-.053-.0896-.001-.1785.016-.2615.05s-.1585.084-.2222.147-.1143.138-.149.22c-.0491.112-1.2028 2.904-.7516 5.92.2546 1.394 1.0844 2.135 1.6909 2.68.3998.358.6455.588.6545.817.01.282-.2334.884-1.4519 2.152-.1237.13-.1908.304-.1868.484.004.179.0788.35.2081.475s.3027.193.4823.191c.1797-.003.3511-.076.477-.204 1.319-1.368 1.8685-2.31 1.8372-3.15-.0313-.819-.6031-1.331-1.1091-1.787-.5338-.477-1.0866-.97-1.2531-1.883-.3909-2.602.6523-5.137.6635-5.165.0346-.083.0526-.172.0528-.261.0003-.09-.0171-.179-.0512-.262-.0342-.083-.0843-.159-.1477-.222-.0633-.064-.1385-.114-.2214-.149zm-31.9755.347c.0751-.165.082-.352.0192-.521-.0628-.17-.1902-.307-.3543-.383-2.6368-1.217-5.1174-1.102-6.8061.315-1.7501 1.471-2.3844 4.099-1.6574 6.844.7952 3.295 2.9284 5.444 6.3426 6.397.2737.076.5585.147.8444.207.0462.01.0934.015.1407.015.1685 0 .331-.063.4561-.176s.2039-.268.2213-.436c.0173-.167-.028-.335-.1274-.471-.0993-.136-.2455-.231-.4104-.265-3.4455-.725-5.3966-2.501-6.1427-5.605-.5942-2.245-.1295-4.339 1.2129-5.466 1.2855-1.08 3.1886-1.123 5.3609-.123.1636.075.35.082.5187.019.1686-.062.3057-.188.3815-.351zm-3.3427 3.698c-.0726-.056-.1555-.096-.244-.119s-.1807-.028-.271-.015c-.0904.014-.1772.045-.2551.093s-.1455.111-.1986.185c-.0532.074-.0908.159-.1107.248s-.0216.181-.0051.271.0509.176.1011.252c.0503.076.1154.142.1915.192.8656.62 1.5145 1.642 1.52 1.651.0474.076.1093.142.1821.194s.1551.089.2423.109.1775.023.2657.008c.0883-.014.1728-.046.2487-.094.0759-.047.1417-.109.1937-.182.052-.072.0891-.155.1093-.242s.023-.177.0082-.266c-.0147-.088-.0466-.172-.094-.248-.0313-.052-.7941-1.259-1.8841-2.037zm56.8382 51.81c-.51-.202-9.7484-3.88-13.8494-5.795-1.2453-.549-2.4124-1.041-3.5393-1.517-.6553-.276-1.2882-.544-1.8987-.803h-.0067c-3.4533-1.463-5.8612-3.953-6.5168-4.683-1.1616-1.291-1.5514-1.387-1.8328-1.372-.0376.002-.0749.007-.1117.015-.2802-.599-.4782-1.234-.5886-1.886-.249-1.748.086-5.575.1385-6.143.2234.011.4442.016.6623.016 1.4218 0 2.6805-.201 3.6733-.628l.0916-.039c2.9508-1.311 5.4726-4.075 7.0719-6.166 3.2467-4.285 5.3085-8.833 5.8077-12.808.3529-2.909.2234-4.929.1005-6.881-.0771-1.218-.1497-2.369-.096-3.658.0815-1.553.3049-2.991.5416-4.513.162-1.045.3295-2.122.4468-3.25 0-.02 0-.049 0-.069 0-.044.0078-.136.0167-.27.4881-7.268-.9158-12.6477-3.9514-15.1472-.0689-.0586-.1487-.1029-.2349-.1304-.0861-.0274-.1769-.0374-.267-.0294-.09.008-.1776.0339-.2576.0761-.0799.0422-.1507.0999-.2081.1697-.0575.0698-.1005.1504-.1264.237-.026.0866-.0345.1775-.025.2674s.0368.1771.0803.2563c.0435.0793.1024.1491.1731.2053 2.0104 1.6608 3.211 4.8751 3.4891 9.2572-1.4419-.296-2.9418-.335-5.3609.336-.161.042-.3009.141-.3935.28-.0925.138-.1312.305-.1088.47s.1043.316.2304.425c.1261.108.2876.167.4539.165.0616 0 .1229-.009.1821-.026 2.5241-.701 3.8129-.519 4.9141-.275.0459.011.0926.016.1396.017.0201 1.061-.0085 2.178-.086 3.351-.01.143-.0156.249-.0178.312-.1117 1.083-.2792 2.138-.4378 3.159-.2312 1.49-.4702 3.029-.5585 4.658-.0569 1.368.0179 2.554.0983 3.809.1195 1.89.2435 3.846-.0927 6.628-.4679 3.738-2.4347 8.054-5.5373 12.149-2.1221 2.773-4.4451 4.815-6.5448 5.748-3.5739 1.605-13.1018-.552-20.014-5.737-.0716-.053-.153-.092-.2397-.115-.0867-.022-.177-.027-.2656-.014-.0886.012-.1739.042-.2509.088-.0771.045-.1444.106-.1982.177-.0537.072-.0928.153-.1151.24s-.0273.177-.0147.265c.0126.089.0426.174.0881.251.0456.077.1059.145.1774.199 4.664 3.496 10.7565 5.888 15.6036 6.436-.0637.681-.3998 4.546-.1262 6.464.1264.759.3517 1.497.6701 2.197-14.0858 5.808-23.2305 1.132-27.679-1.149-.411-.21-.7717-.394-1.0945-.55 2.2069-5.26 2.4984-24.043 2.5096-24.853.0023-.176-.0635-.346-.1836-.474s-.2853-.206-.4608-.215h-.0269c-.0897-.003-.1791.012-.2629.045-.0838.032-.1602.081-.2247.144-.0645.062-.1157.137-.1507.22-.035.082-.053.171-.053.261 0 .133-.1396 9.083-.8935 16.343-2.8814-.112-3.5583-1.985-3.5906-2.081-.0551-.172-.1763-.315-.337-.398-.1606-.082-.3476-.098-.5197-.043s-.3152.176-.398.337c-.0827.161-.0982.348-.0431.52.0268.084.4623 1.39 1.9634 2.261.6835.397 1.587.702 2.7743.762-.3407 2.864-.7897 5.333-1.3782 6.69-.2385-.056-.4876-.047-.7215.026-.1326.044-.2546.115-.3585.209-.104.094-.1876.207-.2457.335-.1307.276-.4468.795-1.2174 1.692-2.3252 2.685-5.2562 4.779-8.5506 6.108-2.313.94-4.6651 1.877-6.9904 2.785-3.5338 1.381-7.1345 2.744-10.704 4.054-2.2886.82-4.39305 2.082-6.1929 3.716l-.0525.047c-4.08098 3.776-5.65909 8.441-6.26443 11.691-.03302.178.0059.362.10822.511.10231.149.25964.251.43737.284.17772.033.36129-.006.51031-.108.14902-.103.2513-.26.28433-.438l.02345-.121c.58411-3.042 2.07065-7.343 5.82998-10.82l.04132-.038c1.66995-1.515 3.62225-2.686 5.74505-3.445 3.574-1.313 7.1881-2.68 10.7308-4.064 2.3308-.91 4.6908-1.85 7.0071-2.792 3.4954-1.409 6.6055-3.63 9.0733-6.478.6199-.724 1.0521-1.316 1.3146-1.801.0919.024.1822.055.2702.091l.0671.027c.4277.175 1.0409.489 1.6038.782 4.3412 2.223 14.4431 7.397 29.4961.911l.0234-.01.1351-.058c.2979.26.5774.54.8366.839.7025.782 3.2802 3.445 6.987 5.026h.0078c.6106.261 1.2461.53 1.9065.807 1.1224.474 2.284.964 3.5058 1.502 4.2239 1.971 13.8365 5.791 13.9335 5.83l.052.018c.111.035 11.299 3.591 11.757 14.072v.031c.007.175.082.341.209.463.127.121.295.19.471.19h.029c.089-.004.177-.025.258-.063.082-.037.154-.091.215-.157.061-.065.108-.143.138-.227.031-.084.045-.173.041-.262-.456-11.207-11.991-15.13-12.68-15.354zm-33.257-65.911c-1.0094.181-1.9839.52-2.8871 1.005-.1341.072-.2403.187-.3019.326-.0615.139-.0748.294-.0376.442.0371.147.1224.278.2425.371.12.093.2678.144.4198.144.112 0 .2222-.028.3205-.082.3601-.192.7333-.359 1.1169-.498-3.9503 5.584-8.6802 8.132-14.1316 7.587-.168-.007-.3327.048-.4622.156-.1296.107-.215.258-.2396.424-.0247.167.013.336.1059.477.0929.14.2343.241.3971.283l.0637.01c.5383.054 1.0699.08 1.5949.08 5.6959 0 10.5944-3.175 14.6218-9.475 2.1667-.223 3.7426.497 3.8353.541.1619.07.3449.075.5105.014.1656-.062.3007-.185.3769-.345.0762-.159.0876-.342.0316-.51-.056-.167-.1748-.306-.3315-.388-.0961-.046-1.5201-.709-3.574-.715 1.3648-2.359 2.6231-5.1004 3.775-8.2231.0525-.1441.1061-.286.1597-.4256 1.2632-3.259 2.9831-5.0984 4.8684-5.1933 1.2374-.0604 2.4693.6935 3.2444 1.9544.0916.1497.1787.3038.2569.4658.0804.159.2199.2802.3885.3376.1687.0574.3532.0464.5139-.0306.1607-.0769.2848-.2138.3458-.3812.061-.1675.0539-.3521-.0197-.5144-.9783-2.0371-2.8625-3.2847-4.8024-3.192-1.4765.0737-4.2508 1.0186-6.2399 6.5124-1.2583 3.4317-2.6458 6.379-4.1625 8.843zm17.2866 13.521c.9929.141 1.9847-.709 2.1221-1.986.1373-1.276-.5674-2.268-1.5636-2.41-.9963-.142-1.9858.709-2.1276 1.985-.1419 1.275.5763 2.269 1.5691 2.411zm-16.0234-4.396c-1.1348-.142-2.1221.851-2.1221 2.122-.1418 1.277.7081 2.269 1.8428 2.269.5581-.015 1.0892-.243 1.484-.638.3947-.394.6231-.926.6381-1.484.1429-1.276-.85-2.269-1.8428-2.269zm15.1356-25.3526c-.1452-.8678-.7919-3.7973-3.0401-5.0259-.0787-.0443-.1653-.0726-.255-.0832-.0897-.0105-.1805-.0031-.2673.0217-.0868.0249-.1678.0668-.2383.1232-.0704.0564-.129.1263-.1722.2056s-.0703.1663-.0796.2561c-.0092.0898-.0006.1806.0255.267.0261.0865.0692.1668.1266.2365.0575.0696.1282.1272.208.1693 1.357.7404 2.1031 2.5788 2.3454 4.0519.0264.1588.1082.3032.2309.4074.1226.1043.2782.1617.4392.1622.0375 0 .0749-.0034.1117-.01.0885-.0142.1733-.0456.2497-.0926.0763-.0469.1426-.1085.1951-.1811s.0901-.1549.1108-.2421.0239-.1776.0096-.266zm-56.667 56.1826c.0848.036.176.054.2681.054.1141 0 .2264-.029.3265-.083.1001-.055.1849-.134.2464-.231.0205-.031.0385-.064.0536-.099.0705-.166.0724-.353.0052-.521-.0672-.167-.1979-.301-.3637-.372-7.3343-3.144-6.8496-11.096-6.2878-20.304l.0357-.583c.8522-14.357 7.7264-33.6349 11.7471-38.5948 6.6877-7.8772 12.5657-9.4006 15.3991-10.1355 13.0527-3.5739 22.9737.908 23.0731.9538.0813.0375.1692.0586.2587.0621.0894.0034.1787-.0109.2626-.042.084-.0311.161-.0785.2265-.1394.0656-.061.1185-.1343.1557-.2157.041-.0871.0627-.1819.0637-.2781.0017-.1313-.0347-.2603-.1046-.3715s-.1705-.1997-.2897-.2551c-.4199-.1954-10.4492-4.7421-23.9967-1.0342-4.5098 1.1694-9.9489 3.3394-16.0972 10.5822-4.6249 5.7038-11.2311 25.3892-12.062 39.3822l-.0357.581c-.5652 9.321-1.1012 18.121 7.1154 21.644zm49.0299-67.311c3.0312-.5428 9.9813.7919 14.5883 9.7077 7.6404 14.9403 10.886 38.4023 6.9447 50.2073-1.1616 3.48-2.8704 5.79-5.0773 6.865-.0806.039-.1528.094-.2123.161s-.1052.145-.1345.23-.0416.175-.0362.264c.0053.09.0283.177.0675.258.0393.081.094.153.1611.212.0671.06.1453.106.2301.135s.1745.042.264.036c.0896-.005.1772-.028.2578-.067 2.5476-1.242 4.4898-3.819 5.7719-7.659 4.0382-12.095.7562-36.048-7.025-51.2632-4.0273-7.7934-10.4046-10.8469-15.054-10.5431-.3304.0202-.6592.0594-.9851.1172-.1716.0381-.3218.141-.4193.2872-.0975.1463-.1347.3245-.1038.4975.0308.1731.1273.3275.2694.431.142.1035.3186.1481.4927.1246zm-45.6793 59.345c-.0886-.013-.1789-.008-.2656.015-.0868.022-.1682.061-.2397.115-.0716.054-.1317.121-.1771.198-.0453.078-.0749.163-.0871.252-.4769 3.405.3183 5.869 1.5412 7.629 1.4821 2.133 3.593 3.239 4.836 3.733.0837.036.174.056.2654.057.0914.002.1822-.016.2668-.05.0847-.035.1615-.086.226-.151.0644-.065.1151-.142.1491-.227s.0505-.176.0486-.267-.0221-.181-.0596-.265c-.0374-.083-.0913-.158-.1584-.221-.067-.062-.1459-.11-.2319-.141-2.4471-.979-6.4208-3.574-5.534-9.908.0122-.09.0066-.18-.0165-.268-.0231-.087-.0632-.168-.1181-.24-.0548-.071-.1233-.131-.2014-.176s-.1644-.074-.2537-.085zm60.2297 4.721c-.9103 2.861-3.5673 6.017-8.0626 5.486-.0889-.011-.1791-.004-.2653.021-.0863.024-.1668.065-.2371.12-.0703.056-.1289.125-.1724.203-.0436.078-.0712.165-.0813.254-.0035.037-.0035.074 0 .111.0089.16.0738.312.1835.429s.2571.191.4162.21c.3707.044.7437.066 1.1169.066 2.9485 0 5.2604-1.434 6.7793-3.393.7195-.93 1.2706-1.979 1.6284-3.099.0488-.171.0293-.353-.0543-.51-.0837-.156-.225-.273-.3939-.327s-.3521-.04-.5108.039c-.1586.079-.2801.217-.3388.385zm33.1849-64.6657c-.104-.1459-.146-.3267-.117-.5035.028-.1767.125-.335.27-.4409.144-.1057.324-.1505.501-.1244.178.026.337.1207.445.2635 3.445 4.6975 7.51 6.1427 9.587 5.1253.197-.0977.385-.2148.559-.3496-1.097-1.4519-1.868-3.3338-1.156-4.7879.363-.745 1.171-1.5112 2.155-1.5413.928-.0313 1.75.6098 2.111 1.2162.399.6702.447 1.5927.126 2.6559-.286.9236-.752 1.7814-1.371 2.5241.111.1117.231.2156.348.315 2.186 1.8405 5.039 1.5636 6.165 1.3592.089-.0184.181-.0188.27-.0013.089.0176.174.0529.249.1037.076.0508.14.1162.19.1922.049.0761.083.1614.1.2508.016.0894.014.1811-.006.2698-.019.0887-.057.1725-.109.2466-.053.074-.12.1368-.197.1846-.077.0479-.163.0797-.253.0938-.627.1127-1.262.1691-1.899.1686-1.574 0-3.64-.3518-5.39-1.826-.145-.1217-.291-.2558-.438-.3987-.263.2123-.549.3958-.852.5472-3.088 1.5089-7.835-.822-11.298-5.5463zm12.203 2.9909c.431-.5595.76-1.1915.969-1.8662.2-.6701.202-1.2431.007-1.5726-.159-.2669-.536-.5495-.877-.5495h-.019c-.416.0134-.819.4635-.974.7818-.399.7897.072 2.0774.884 3.2032zm-21.667-3.4086c-3.462 4.7243-8.209 7.0551-11.28 5.5429-.303-.1511-.589-.3346-.852-.5472-.147.1429-.294.277-.438.3987-1.75 1.4742-3.8165 1.826-5.3902 1.826-.6366-.0002-1.272-.0566-1.8986-.1686-.1752-.0351-.3296-.1376-.4299-.2854-.1004-.1478-.1386-.3292-.1066-.5049.0321-.1758.132-.3319.278-.4348.1461-.1028.3268-.1442.5031-.1151 1.1246.2055 3.9782.4836 6.1652-1.3581.117-.0998.234-.2048.348-.315-.619-.7427-1.086-1.6005-1.372-2.5241-.316-1.0632-.273-1.9813.127-2.6558.36-.6065 1.17-1.2431 2.111-1.2163.983.0302 1.787.7963 2.155 1.5413.712 1.4519-.059 3.3382-1.156 4.7879.174.1351.361.2522.559.3496 2.076 1.0208 6.143-.4289 9.586-5.1252.108-.1429.267-.2376.444-.2636.178-.026.358.0187.502.1245.145.1058.242.2641.27.4409.029.1767-.014.3575-.117.5034zm-11.308-.2234c-.154-.3149-.559-.765-.975-.7818h-.018c-.341 0-.718.2826-.878.5495-.194.3351-.192.9024.008 1.5725.21.6748.538 1.3068.969 1.8663.797-1.1224 1.268-2.4091.878-3.2054zm19.795-10.6391c.004.988-.366 1.9409-1.037 2.667-.353.3871-.782.697-1.26.9102-.479.2132-.997.325-1.521.3284h-.023c-.526-.0071-1.045-.1235-1.524-.3417-.478-.2182-.906-.5335-1.257-.9259-.665-.7377-1.024-1.7008-1.005-2.6939-.64-.8935-.696-2.0103-.67-2.6346-.804-.9404-1.08-2.0428-1.175-2.6548-.571-.8756-.736-1.969-.918-3.1696-.224-1.4631-.497-3.2836-1.548-5.4447-.765-1.5725-1.637-2.7184-2.482-3.8263-1.394-1.8305-2.71-3.5594-2.904-6.6129-.032-.4965-.032-.9946 0-1.491.335-4.6439 4.587-13.3163 13.365-13.3185 4.268 0 7.259 2.0986 9.02 3.8587 2.641 2.6425 4.345 6.375 4.342 9.5078-.003.3755-.027.7506-.071 1.1236-.335 3.2388-1.598 5.056-2.939 6.9814-.745 1.07-1.516 2.1756-2.197 3.6175-1.053 2.2248-1.317 4.043-1.53 5.505-.187 1.2844-.348 2.3856-.971 3.2623-.06.8619-.337 1.6945-.806 2.4202.004.6512-.087 1.9411-.905 2.9329zm-6.254-.5585c.438.3731.988.3921 2.297.4032 1.452.0112 2.11 0 2.655-.4534.046-.0386.091-.0796.134-.1229l.009-.0078c.224-.2359.394-.518.498-.8265-.845.4066-1.762.4769-2.639.4769-.229 0-.456 0-.677-.0089-.947-.019-1.919-.0413-2.86-.4791.07.3158.216.6102.423.8588l.012.0146c.039.0504.081.0985.126.144zm6.216-3.4622c-.982.4188-2.263.6411-3.821.6589h-.324c-.76 0-2.086-.0491-3.274-.4847.193.2827.431.5317.706.7371.81.6031 1.689.621 2.802.6434 1.304.0279 2.43.0502 3.294-.7349.247-.2339.449-.511.596-.8176zm-4.727-.707c.362.0145.671.0112.873.009.377 0 .733-.0224 1.07-.0514.033-1.0398.236-7.4215.36-11.5148-.751.058-1.507.0269-2.251-.0927.053 1.0923.087 2.4348.092 4.0877.006 3.4422-.118 6.8139-.144 7.5622zm-4.287-3.986c.194 1.2821.343 2.122.767 2.7095.005.0055.01.0114.013.0178.208.2744.475.4979.782.6534.433.2198.895.3737 1.373.4568.172-4.177.193-8.7193.024-11.8063-1.038-.3015-1.925-.7349-2.43-1.2095-.461-.4181-.74-.9995-.779-1.6205-.038-.621.167-1.2325.573-1.7044.634-.7204 1.836-1.0699 2.975-.1329.272.2234.709.5819.955 3.5739.784.1546 1.587.1945 2.383.1184.031-1.0945.053-1.8607.055-2.0516-.002-.397.114-.7856.332-1.117.219-.3313.531-.5905.896-.7448.702-.3005 1.485-.1866 1.997.2915.354.335.87 1.1168.335 2.6368-.349 1.0052-1.134 1.7167-2.284 2.0908-.111 3.823-.308 9.9188-.36 11.565.431-.0976.847-.2539 1.236-.4646 1.087-.612 1.254-1.4709 1.528-3.3506.223-1.5513.506-3.4812 1.646-5.8914.731-1.5446 1.535-2.6983 2.311-3.8129 1.292-1.854 2.407-3.4555 2.703-6.3381.038-.3285.059-.6588.062-.9896 0-2.2862-1.216-5.8143-3.942-8.5428-1.577-1.5781-4.255-3.4622-8.057-3.4622-7.784 0-11.717 7.981-12.005 12.0519-.029.4359-.029.8731 0 1.309.168 2.6425 1.254 4.0676 2.629 5.8735.843 1.1068 1.798 2.3622 2.622 4.0564 1.127 2.3376 1.421 4.2765 1.655 5.8311zm8.959-10.3778c.235-.6701.163-1.0555.018-1.1906-.075-.063-.172-.0953-.27-.0905-.089.0009-.177.0195-.259.0548-.123.05-.227.1366-.298.2479-.071.1114-.107.242-.101.3742 0 .1719-.018.7818-.044 1.6563.443-.2138.784-.5928.95-1.0555zm-6.548-1.2196c-.16-.1467-.365-.2335-.582-.2457-.093.0025-.185.0251-.269.0663-.084.0413-.159.1002-.218.1727-.174.2052-.26.471-.239.7395.021.2684.147.5177.351.6934.276.2602.775.5216 1.392.7405-.105-1.1381-.251-1.9154-.439-2.1701zm5.058 21.343c-.558.1542-1.169.1799-1.883.1799h-.519c-.835-.0067-1.502-.0134-2.081-.1653.112.2506.263.4817.447.6846.224.2523.497.4554.804.5963.306.1409.638.2166.975.2223h.015c.335-.0035.667-.0763.973-.2139.307-.1376.581-.337.807-.5857.192-.2134.346-.4572.458-.7215zm20.384-21.9316-8.13-2.724c-.169-.0509-.352-.0339-.509.0474s-.276.2206-.332.3883c-.057.1677-.046.3507.031.5104.076.1596.211.2833.377.345l8.131 2.7251c.069.0232.142.0353.215.0357.162.0006.319-.0567.443-.1614.124-.1048.206-.2502.232-.4101.026-.16-.006-.324-.09-.4626s-.214-.2428-.368-.2938zm-14.209-18.3164c.114.0815.251.1253.391.1251.11 0 .218-.0263.315-.0766s.181-.1233.244-.2127l5.148-7.3109c.104-.1481.145-.3313.113-.5094-.031-.178-.132-.3363-.28-.4399-.148-.1037-.331-.1443-.509-.1129-.179.0314-.337.1323-.44.2804l-5.149 7.3109c-.052.0734-.088.1562-.108.2437-.019.0876-.021.1781-.005.2664.016.0882.049.1725.097.2479.049.0754.112.1404.186.1913zm-17.612-.7315c.103.1481.262.2489.44.2803s.361-.0091.509-.1128.249-.262.28-.44c.032-.178-.009-.3612-.113-.5093l-4.749-6.7436c-.052-.0733-.117-.1358-.193-.1839-.075-.0482-.159-.0809-.247-.0965-.089-.0155-.179-.0136-.266.0058-.088.0193-.17.0557-.244.1071-.073.0513-.136.1166-.184.1921s-.081.1597-.096.2478c-.016.0882-.014.1785.006.2659.019.0874.055.1702.107.2435zm-5.769 16.6679-7.0841 2.38c-.1538.051-.2843.155-.3682.2935-.084.1386-.1158.3024-.0899.4623.026.1599.108.3053.2315.4101.1234.1049.2802.1623.4421.162.0737-.0003.1468-.0124.2167-.0357l7.0919-2.3767c.171-.0574.313-.1806.394-.3424.08-.1618.093-.349.036-.5203-.058-.1714-.181-.3129-.343-.3934-.162-.0806-.349-.0935-.52-.0361zm28.568-8.726c.044.1369.13.2564.246.3414s.256.1313.4.1321c.071-.0001.143-.0114.211-.0335l8.222-2.6748c.172-.056.315-.178.397-.3392s.096-.3483.04-.5202c-.056-.172-.178-.3147-.339-.3967s-.348-.0966-.52-.0406l-8.221 2.6805c-.171.0567-.311.1782-.393.3381-.081.16-.095.3455-.041.5163zm-13.892-10.1366c.18 0 .353-.0717.481-.1995s.2-.3011.2-.4817v-8.5819c0-.1807-.072-.354-.2-.4818-.128-.1277-.301-.1995-.481-.1995-.181 0-.354.0718-.482.1995-.128.1278-.2.3011-.2.4818v8.5852c.001.1801.073.3525.201.4796.128.127.3.1983.481.1983zm-22.1834 7.6661 7.5634 2.4995c.085.0305.176.0435.267.0384.09-.0052.179-.0283.261-.0682.081-.0399.154-.0956.213-.164.06-.0683.106-.1479.134-.2341.029-.0862.04-.1771.032-.2676-.007-.0905-.032-.1786-.074-.2592-.041-.0806-.099-.1521-.168-.2103-.07-.0581-.151-.1017-.237-.1283l-7.5681-2.4961c-.1703-.0522-.3542-.0355-.5123.0462-.1582.0818-.278.2222-.3339.3913-.0559.169-.0435.3532.0347.5132.0783.1599.216.2829.3837.3426z" fill="#221b0b"></path></g></svg>